%TF.GenerationSoftware,KiCad,Pcbnew,(5.1.9)-1*%
%TF.CreationDate,2021-06-07T16:13:34+02:00*%
%TF.ProjectId,16_STEP_DOWN,31365f53-5445-4505-9f44-4f574e2e6b69,rev?*%
%TF.SameCoordinates,Original*%
%TF.FileFunction,Soldermask,Top*%
%TF.FilePolarity,Negative*%
%FSLAX46Y46*%
G04 Gerber Fmt 4.6, Leading zero omitted, Abs format (unit mm)*
G04 Created by KiCad (PCBNEW (5.1.9)-1) date 2021-06-07 16:13:34*
%MOMM*%
%LPD*%
G01*
G04 APERTURE LIST*
%TA.AperFunction,Profile*%
%ADD10C,0.050000*%
%TD*%
%ADD11C,1.624000*%
%ADD12C,0.100000*%
G04 APERTURE END LIST*
D10*
X119380000Y-67310000D02*
X120650000Y-67310000D01*
X119380000Y-64770000D02*
X119380000Y-67310000D01*
X120650000Y-64770000D02*
X119380000Y-64770000D01*
X120650000Y-62230000D02*
X120650000Y-64770000D01*
X119380000Y-62230000D02*
X120650000Y-62230000D01*
X119380000Y-60960000D02*
X119380000Y-62230000D01*
X113665000Y-60960000D02*
X119380000Y-60960000D01*
X114935000Y-81280000D02*
X120650000Y-81280000D01*
X101600000Y-62230000D02*
X101600000Y-60960000D01*
X100330000Y-62230000D02*
X101600000Y-62230000D01*
X100330000Y-64770000D02*
X100330000Y-62230000D01*
X101600000Y-67310000D02*
X100330000Y-67310000D01*
X101600000Y-74930000D02*
X101600000Y-67310000D01*
X100330000Y-74930000D02*
X101600000Y-74930000D01*
X120650000Y-67310000D02*
X120650000Y-81280000D01*
X101600000Y-60960000D02*
X113665000Y-60960000D01*
X101600000Y-80010000D02*
X101600000Y-81280000D01*
X100330000Y-80010000D02*
X101600000Y-80010000D01*
X100330000Y-64770000D02*
X100330000Y-67310000D01*
X114935000Y-81280000D02*
X101600000Y-81280000D01*
X100330000Y-80010000D02*
X100330000Y-74930000D01*
%TO.C,C5*%
G36*
G01*
X118665000Y-73215000D02*
X118665000Y-73765000D01*
G75*
G02*
X118415000Y-74015000I-250000J0D01*
G01*
X117915000Y-74015000D01*
G75*
G02*
X117665000Y-73765000I0J250000D01*
G01*
X117665000Y-73215000D01*
G75*
G02*
X117915000Y-72965000I250000J0D01*
G01*
X118415000Y-72965000D01*
G75*
G02*
X118665000Y-73215000I0J-250000D01*
G01*
G37*
G36*
G01*
X117115000Y-73215000D02*
X117115000Y-73765000D01*
G75*
G02*
X116865000Y-74015000I-250000J0D01*
G01*
X116365000Y-74015000D01*
G75*
G02*
X116115000Y-73765000I0J250000D01*
G01*
X116115000Y-73215000D01*
G75*
G02*
X116365000Y-72965000I250000J0D01*
G01*
X116865000Y-72965000D01*
G75*
G02*
X117115000Y-73215000I0J-250000D01*
G01*
G37*
%TD*%
%TO.C,R3*%
G36*
G01*
X117715000Y-69540000D02*
X117715000Y-68940000D01*
G75*
G02*
X117940000Y-68715000I225000J0D01*
G01*
X118390000Y-68715000D01*
G75*
G02*
X118615000Y-68940000I0J-225000D01*
G01*
X118615000Y-69540000D01*
G75*
G02*
X118390000Y-69765000I-225000J0D01*
G01*
X117940000Y-69765000D01*
G75*
G02*
X117715000Y-69540000I0J225000D01*
G01*
G37*
G36*
G01*
X116065000Y-69540000D02*
X116065000Y-68940000D01*
G75*
G02*
X116290000Y-68715000I225000J0D01*
G01*
X116740000Y-68715000D01*
G75*
G02*
X116965000Y-68940000I0J-225000D01*
G01*
X116965000Y-69540000D01*
G75*
G02*
X116740000Y-69765000I-225000J0D01*
G01*
X116290000Y-69765000D01*
G75*
G02*
X116065000Y-69540000I0J225000D01*
G01*
G37*
%TD*%
%TO.C,R2*%
G36*
G01*
X118665000Y-71640000D02*
X118665000Y-72240000D01*
G75*
G02*
X118440000Y-72465000I-225000J0D01*
G01*
X117990000Y-72465000D01*
G75*
G02*
X117765000Y-72240000I0J225000D01*
G01*
X117765000Y-71640000D01*
G75*
G02*
X117990000Y-71415000I225000J0D01*
G01*
X118440000Y-71415000D01*
G75*
G02*
X118665000Y-71640000I0J-225000D01*
G01*
G37*
G36*
G01*
X117015000Y-71640000D02*
X117015000Y-72240000D01*
G75*
G02*
X116790000Y-72465000I-225000J0D01*
G01*
X116340000Y-72465000D01*
G75*
G02*
X116115000Y-72240000I0J225000D01*
G01*
X116115000Y-71640000D01*
G75*
G02*
X116340000Y-71415000I225000J0D01*
G01*
X116790000Y-71415000D01*
G75*
G02*
X117015000Y-71640000I0J-225000D01*
G01*
G37*
%TD*%
D11*
%TO.C,J5*%
X101600000Y-76200000D03*
D12*
G36*
X101939650Y-77099999D02*
G01*
X101927782Y-77099916D01*
X101924993Y-77099818D01*
X101842112Y-77094604D01*
X101837256Y-77094060D01*
X101755280Y-77080782D01*
X101750503Y-77079766D01*
X101670214Y-77058553D01*
X101665558Y-77057076D01*
X101587721Y-77028129D01*
X101583231Y-77026205D01*
X101508591Y-76989801D01*
X101504309Y-76987447D01*
X101433578Y-76943932D01*
X101429548Y-76941173D01*
X101363401Y-76890965D01*
X101359659Y-76887825D01*
X101298726Y-76831401D01*
X101295308Y-76827910D01*
X101240173Y-76765809D01*
X101237112Y-76762003D01*
X101188299Y-76694819D01*
X101185624Y-76690731D01*
X101143601Y-76619104D01*
X101141338Y-76614774D01*
X101106505Y-76539388D01*
X101104675Y-76534859D01*
X101077364Y-76456433D01*
X101075985Y-76451747D01*
X101056458Y-76371031D01*
X101055543Y-76366233D01*
X101043985Y-76283997D01*
X101043542Y-76279131D01*
X101040065Y-76196159D01*
X101040099Y-76191275D01*
X101044734Y-76108360D01*
X101045245Y-76103501D01*
X101057950Y-76021434D01*
X101058932Y-76016650D01*
X101079584Y-75936214D01*
X101081028Y-75931547D01*
X101109431Y-75853511D01*
X101111324Y-75849008D01*
X101147207Y-75774115D01*
X101149531Y-75769818D01*
X101192550Y-75698785D01*
X101195282Y-75694735D01*
X101245028Y-75628239D01*
X101248141Y-75624475D01*
X101304138Y-75563150D01*
X101307604Y-75559708D01*
X101369318Y-75504140D01*
X101373104Y-75501052D01*
X101439946Y-75451772D01*
X101444015Y-75449069D01*
X101515347Y-75406547D01*
X101519660Y-75404254D01*
X101594801Y-75368895D01*
X101599317Y-75367033D01*
X101677550Y-75339175D01*
X101682227Y-75337763D01*
X101762805Y-75317673D01*
X101767597Y-75316724D01*
X101849751Y-75304593D01*
X101854612Y-75304117D01*
X101937557Y-75300060D01*
X101940000Y-75300000D01*
X104990000Y-75300000D01*
X104999755Y-75300961D01*
X105009134Y-75303806D01*
X105017779Y-75308427D01*
X105025355Y-75314645D01*
X105031573Y-75322221D01*
X105036194Y-75330866D01*
X105039039Y-75340245D01*
X105040000Y-75350000D01*
X105040000Y-77050000D01*
X105039039Y-77059755D01*
X105036194Y-77069134D01*
X105031573Y-77077779D01*
X105025355Y-77085355D01*
X105017779Y-77091573D01*
X105009134Y-77096194D01*
X104999755Y-77099039D01*
X104990000Y-77100000D01*
X101940000Y-77100000D01*
X101939650Y-77099999D01*
G37*
%TD*%
D11*
%TO.C,J1*%
X101600000Y-78740000D03*
D12*
G36*
X101939650Y-79639999D02*
G01*
X101927782Y-79639916D01*
X101924993Y-79639818D01*
X101842112Y-79634604D01*
X101837256Y-79634060D01*
X101755280Y-79620782D01*
X101750503Y-79619766D01*
X101670214Y-79598553D01*
X101665558Y-79597076D01*
X101587721Y-79568129D01*
X101583231Y-79566205D01*
X101508591Y-79529801D01*
X101504309Y-79527447D01*
X101433578Y-79483932D01*
X101429548Y-79481173D01*
X101363401Y-79430965D01*
X101359659Y-79427825D01*
X101298726Y-79371401D01*
X101295308Y-79367910D01*
X101240173Y-79305809D01*
X101237112Y-79302003D01*
X101188299Y-79234819D01*
X101185624Y-79230731D01*
X101143601Y-79159104D01*
X101141338Y-79154774D01*
X101106505Y-79079388D01*
X101104675Y-79074859D01*
X101077364Y-78996433D01*
X101075985Y-78991747D01*
X101056458Y-78911031D01*
X101055543Y-78906233D01*
X101043985Y-78823997D01*
X101043542Y-78819131D01*
X101040065Y-78736159D01*
X101040099Y-78731275D01*
X101044734Y-78648360D01*
X101045245Y-78643501D01*
X101057950Y-78561434D01*
X101058932Y-78556650D01*
X101079584Y-78476214D01*
X101081028Y-78471547D01*
X101109431Y-78393511D01*
X101111324Y-78389008D01*
X101147207Y-78314115D01*
X101149531Y-78309818D01*
X101192550Y-78238785D01*
X101195282Y-78234735D01*
X101245028Y-78168239D01*
X101248141Y-78164475D01*
X101304138Y-78103150D01*
X101307604Y-78099708D01*
X101369318Y-78044140D01*
X101373104Y-78041052D01*
X101439946Y-77991772D01*
X101444015Y-77989069D01*
X101515347Y-77946547D01*
X101519660Y-77944254D01*
X101594801Y-77908895D01*
X101599317Y-77907033D01*
X101677550Y-77879175D01*
X101682227Y-77877763D01*
X101762805Y-77857673D01*
X101767597Y-77856724D01*
X101849751Y-77844593D01*
X101854612Y-77844117D01*
X101937557Y-77840060D01*
X101940000Y-77840000D01*
X104990000Y-77840000D01*
X104999755Y-77840961D01*
X105009134Y-77843806D01*
X105017779Y-77848427D01*
X105025355Y-77854645D01*
X105031573Y-77862221D01*
X105036194Y-77870866D01*
X105039039Y-77880245D01*
X105040000Y-77890000D01*
X105040000Y-79590000D01*
X105039039Y-79599755D01*
X105036194Y-79609134D01*
X105031573Y-79617779D01*
X105025355Y-79625355D01*
X105017779Y-79631573D01*
X105009134Y-79636194D01*
X104999755Y-79639039D01*
X104990000Y-79640000D01*
X101940000Y-79640000D01*
X101939650Y-79639999D01*
G37*
%TD*%
D11*
%TO.C,J3*%
X101600000Y-63500000D03*
D12*
G36*
X101939650Y-64399999D02*
G01*
X101927782Y-64399916D01*
X101924993Y-64399818D01*
X101842112Y-64394604D01*
X101837256Y-64394060D01*
X101755280Y-64380782D01*
X101750503Y-64379766D01*
X101670214Y-64358553D01*
X101665558Y-64357076D01*
X101587721Y-64328129D01*
X101583231Y-64326205D01*
X101508591Y-64289801D01*
X101504309Y-64287447D01*
X101433578Y-64243932D01*
X101429548Y-64241173D01*
X101363401Y-64190965D01*
X101359659Y-64187825D01*
X101298726Y-64131401D01*
X101295308Y-64127910D01*
X101240173Y-64065809D01*
X101237112Y-64062003D01*
X101188299Y-63994819D01*
X101185624Y-63990731D01*
X101143601Y-63919104D01*
X101141338Y-63914774D01*
X101106505Y-63839388D01*
X101104675Y-63834859D01*
X101077364Y-63756433D01*
X101075985Y-63751747D01*
X101056458Y-63671031D01*
X101055543Y-63666233D01*
X101043985Y-63583997D01*
X101043542Y-63579131D01*
X101040065Y-63496159D01*
X101040099Y-63491275D01*
X101044734Y-63408360D01*
X101045245Y-63403501D01*
X101057950Y-63321434D01*
X101058932Y-63316650D01*
X101079584Y-63236214D01*
X101081028Y-63231547D01*
X101109431Y-63153511D01*
X101111324Y-63149008D01*
X101147207Y-63074115D01*
X101149531Y-63069818D01*
X101192550Y-62998785D01*
X101195282Y-62994735D01*
X101245028Y-62928239D01*
X101248141Y-62924475D01*
X101304138Y-62863150D01*
X101307604Y-62859708D01*
X101369318Y-62804140D01*
X101373104Y-62801052D01*
X101439946Y-62751772D01*
X101444015Y-62749069D01*
X101515347Y-62706547D01*
X101519660Y-62704254D01*
X101594801Y-62668895D01*
X101599317Y-62667033D01*
X101677550Y-62639175D01*
X101682227Y-62637763D01*
X101762805Y-62617673D01*
X101767597Y-62616724D01*
X101849751Y-62604593D01*
X101854612Y-62604117D01*
X101937557Y-62600060D01*
X101940000Y-62600000D01*
X104990000Y-62600000D01*
X104999755Y-62600961D01*
X105009134Y-62603806D01*
X105017779Y-62608427D01*
X105025355Y-62614645D01*
X105031573Y-62622221D01*
X105036194Y-62630866D01*
X105039039Y-62640245D01*
X105040000Y-62650000D01*
X105040000Y-64350000D01*
X105039039Y-64359755D01*
X105036194Y-64369134D01*
X105031573Y-64377779D01*
X105025355Y-64385355D01*
X105017779Y-64391573D01*
X105009134Y-64396194D01*
X104999755Y-64399039D01*
X104990000Y-64400000D01*
X101940000Y-64400000D01*
X101939650Y-64399999D01*
G37*
%TD*%
D11*
%TO.C,J4*%
X101600000Y-66040000D03*
D12*
G36*
X101939650Y-66939999D02*
G01*
X101927782Y-66939916D01*
X101924993Y-66939818D01*
X101842112Y-66934604D01*
X101837256Y-66934060D01*
X101755280Y-66920782D01*
X101750503Y-66919766D01*
X101670214Y-66898553D01*
X101665558Y-66897076D01*
X101587721Y-66868129D01*
X101583231Y-66866205D01*
X101508591Y-66829801D01*
X101504309Y-66827447D01*
X101433578Y-66783932D01*
X101429548Y-66781173D01*
X101363401Y-66730965D01*
X101359659Y-66727825D01*
X101298726Y-66671401D01*
X101295308Y-66667910D01*
X101240173Y-66605809D01*
X101237112Y-66602003D01*
X101188299Y-66534819D01*
X101185624Y-66530731D01*
X101143601Y-66459104D01*
X101141338Y-66454774D01*
X101106505Y-66379388D01*
X101104675Y-66374859D01*
X101077364Y-66296433D01*
X101075985Y-66291747D01*
X101056458Y-66211031D01*
X101055543Y-66206233D01*
X101043985Y-66123997D01*
X101043542Y-66119131D01*
X101040065Y-66036159D01*
X101040099Y-66031275D01*
X101044734Y-65948360D01*
X101045245Y-65943501D01*
X101057950Y-65861434D01*
X101058932Y-65856650D01*
X101079584Y-65776214D01*
X101081028Y-65771547D01*
X101109431Y-65693511D01*
X101111324Y-65689008D01*
X101147207Y-65614115D01*
X101149531Y-65609818D01*
X101192550Y-65538785D01*
X101195282Y-65534735D01*
X101245028Y-65468239D01*
X101248141Y-65464475D01*
X101304138Y-65403150D01*
X101307604Y-65399708D01*
X101369318Y-65344140D01*
X101373104Y-65341052D01*
X101439946Y-65291772D01*
X101444015Y-65289069D01*
X101515347Y-65246547D01*
X101519660Y-65244254D01*
X101594801Y-65208895D01*
X101599317Y-65207033D01*
X101677550Y-65179175D01*
X101682227Y-65177763D01*
X101762805Y-65157673D01*
X101767597Y-65156724D01*
X101849751Y-65144593D01*
X101854612Y-65144117D01*
X101937557Y-65140060D01*
X101940000Y-65140000D01*
X104990000Y-65140000D01*
X104999755Y-65140961D01*
X105009134Y-65143806D01*
X105017779Y-65148427D01*
X105025355Y-65154645D01*
X105031573Y-65162221D01*
X105036194Y-65170866D01*
X105039039Y-65180245D01*
X105040000Y-65190000D01*
X105040000Y-66890000D01*
X105039039Y-66899755D01*
X105036194Y-66909134D01*
X105031573Y-66917779D01*
X105025355Y-66925355D01*
X105017779Y-66931573D01*
X105009134Y-66936194D01*
X104999755Y-66939039D01*
X104990000Y-66940000D01*
X101940000Y-66940000D01*
X101939650Y-66939999D01*
G37*
%TD*%
D11*
%TO.C,J2*%
X119380000Y-63500000D03*
D12*
G36*
X119040350Y-62600001D02*
G01*
X119052218Y-62600084D01*
X119055007Y-62600182D01*
X119137888Y-62605396D01*
X119142744Y-62605940D01*
X119224720Y-62619218D01*
X119229497Y-62620234D01*
X119309786Y-62641447D01*
X119314442Y-62642924D01*
X119392279Y-62671871D01*
X119396769Y-62673795D01*
X119471409Y-62710199D01*
X119475691Y-62712553D01*
X119546422Y-62756068D01*
X119550452Y-62758827D01*
X119616599Y-62809035D01*
X119620341Y-62812175D01*
X119681274Y-62868599D01*
X119684692Y-62872090D01*
X119739827Y-62934191D01*
X119742888Y-62937997D01*
X119791701Y-63005181D01*
X119794376Y-63009269D01*
X119836399Y-63080896D01*
X119838662Y-63085226D01*
X119873495Y-63160612D01*
X119875325Y-63165141D01*
X119902636Y-63243567D01*
X119904015Y-63248253D01*
X119923542Y-63328969D01*
X119924457Y-63333767D01*
X119936015Y-63416003D01*
X119936458Y-63420869D01*
X119939935Y-63503841D01*
X119939901Y-63508725D01*
X119935266Y-63591640D01*
X119934755Y-63596499D01*
X119922050Y-63678566D01*
X119921068Y-63683350D01*
X119900416Y-63763786D01*
X119898972Y-63768453D01*
X119870569Y-63846489D01*
X119868676Y-63850992D01*
X119832793Y-63925885D01*
X119830469Y-63930182D01*
X119787450Y-64001215D01*
X119784718Y-64005265D01*
X119734972Y-64071761D01*
X119731859Y-64075525D01*
X119675862Y-64136850D01*
X119672396Y-64140292D01*
X119610682Y-64195860D01*
X119606896Y-64198948D01*
X119540054Y-64248228D01*
X119535985Y-64250931D01*
X119464653Y-64293453D01*
X119460340Y-64295746D01*
X119385199Y-64331105D01*
X119380683Y-64332967D01*
X119302450Y-64360825D01*
X119297773Y-64362237D01*
X119217195Y-64382327D01*
X119212403Y-64383276D01*
X119130249Y-64395407D01*
X119125388Y-64395883D01*
X119042443Y-64399940D01*
X119040000Y-64400000D01*
X115990000Y-64400000D01*
X115980245Y-64399039D01*
X115970866Y-64396194D01*
X115962221Y-64391573D01*
X115954645Y-64385355D01*
X115948427Y-64377779D01*
X115943806Y-64369134D01*
X115940961Y-64359755D01*
X115940000Y-64350000D01*
X115940000Y-62650000D01*
X115940961Y-62640245D01*
X115943806Y-62630866D01*
X115948427Y-62622221D01*
X115954645Y-62614645D01*
X115962221Y-62608427D01*
X115970866Y-62603806D01*
X115980245Y-62600961D01*
X115990000Y-62600000D01*
X119040000Y-62600000D01*
X119040350Y-62600001D01*
G37*
%TD*%
%TO.C,C3*%
G36*
G01*
X102965000Y-69215000D02*
X103515000Y-69215000D01*
G75*
G02*
X103765000Y-69465000I0J-250000D01*
G01*
X103765000Y-69965000D01*
G75*
G02*
X103515000Y-70215000I-250000J0D01*
G01*
X102965000Y-70215000D01*
G75*
G02*
X102715000Y-69965000I0J250000D01*
G01*
X102715000Y-69465000D01*
G75*
G02*
X102965000Y-69215000I250000J0D01*
G01*
G37*
G36*
G01*
X102965000Y-67665000D02*
X103515000Y-67665000D01*
G75*
G02*
X103765000Y-67915000I0J-250000D01*
G01*
X103765000Y-68415000D01*
G75*
G02*
X103515000Y-68665000I-250000J0D01*
G01*
X102965000Y-68665000D01*
G75*
G02*
X102715000Y-68415000I0J250000D01*
G01*
X102715000Y-67915000D01*
G75*
G02*
X102965000Y-67665000I250000J0D01*
G01*
G37*
%TD*%
%TO.C,C2*%
G36*
G01*
X116990000Y-67868262D02*
X116990000Y-65611738D01*
G75*
G02*
X117261738Y-65340000I271738J0D01*
G01*
X117968262Y-65340000D01*
G75*
G02*
X118240000Y-65611738I0J-271738D01*
G01*
X118240000Y-67868262D01*
G75*
G02*
X117968262Y-68140000I-271738J0D01*
G01*
X117261738Y-68140000D01*
G75*
G02*
X116990000Y-67868262I0J271738D01*
G01*
G37*
G36*
G01*
X114040000Y-67868262D02*
X114040000Y-65611738D01*
G75*
G02*
X114311738Y-65340000I271738J0D01*
G01*
X115018262Y-65340000D01*
G75*
G02*
X115290000Y-65611738I0J-271738D01*
G01*
X115290000Y-67868262D01*
G75*
G02*
X115018262Y-68140000I-271738J0D01*
G01*
X114311738Y-68140000D01*
G75*
G02*
X114040000Y-67868262I0J271738D01*
G01*
G37*
%TD*%
%TO.C,C1*%
G36*
G01*
X111415000Y-71965000D02*
X110865000Y-71965000D01*
G75*
G02*
X110615000Y-71715000I0J250000D01*
G01*
X110615000Y-71215000D01*
G75*
G02*
X110865000Y-70965000I250000J0D01*
G01*
X111415000Y-70965000D01*
G75*
G02*
X111665000Y-71215000I0J-250000D01*
G01*
X111665000Y-71715000D01*
G75*
G02*
X111415000Y-71965000I-250000J0D01*
G01*
G37*
G36*
G01*
X111415000Y-73515000D02*
X110865000Y-73515000D01*
G75*
G02*
X110615000Y-73265000I0J250000D01*
G01*
X110615000Y-72765000D01*
G75*
G02*
X110865000Y-72515000I250000J0D01*
G01*
X111415000Y-72515000D01*
G75*
G02*
X111665000Y-72765000I0J-250000D01*
G01*
X111665000Y-73265000D01*
G75*
G02*
X111415000Y-73515000I-250000J0D01*
G01*
G37*
%TD*%
%TO.C,C4*%
G36*
G01*
X104611738Y-67640000D02*
X106868262Y-67640000D01*
G75*
G02*
X107140000Y-67911738I0J-271738D01*
G01*
X107140000Y-68618262D01*
G75*
G02*
X106868262Y-68890000I-271738J0D01*
G01*
X104611738Y-68890000D01*
G75*
G02*
X104340000Y-68618262I0J271738D01*
G01*
X104340000Y-67911738D01*
G75*
G02*
X104611738Y-67640000I271738J0D01*
G01*
G37*
G36*
G01*
X104611738Y-70590000D02*
X106868262Y-70590000D01*
G75*
G02*
X107140000Y-70861738I0J-271738D01*
G01*
X107140000Y-71568262D01*
G75*
G02*
X106868262Y-71840000I-271738J0D01*
G01*
X104611738Y-71840000D01*
G75*
G02*
X104340000Y-71568262I0J271738D01*
G01*
X104340000Y-70861738D01*
G75*
G02*
X104611738Y-70590000I271738J0D01*
G01*
G37*
%TD*%
%TO.C,D2*%
G36*
G01*
X114390000Y-62950000D02*
X114390000Y-64050000D01*
G75*
G02*
X114340000Y-64100000I-50000J0D01*
G01*
X113240000Y-64100000D01*
G75*
G02*
X113190000Y-64050000I0J50000D01*
G01*
X113190000Y-62950000D01*
G75*
G02*
X113240000Y-62900000I50000J0D01*
G01*
X114340000Y-62900000D01*
G75*
G02*
X114390000Y-62950000I0J-50000D01*
G01*
G37*
G36*
G01*
X111590000Y-62950000D02*
X111590000Y-64050000D01*
G75*
G02*
X111540000Y-64100000I-50000J0D01*
G01*
X110440000Y-64100000D01*
G75*
G02*
X110390000Y-64050000I0J50000D01*
G01*
X110390000Y-62950000D01*
G75*
G02*
X110440000Y-62900000I50000J0D01*
G01*
X111540000Y-62900000D01*
G75*
G02*
X111590000Y-62950000I0J-50000D01*
G01*
G37*
%TD*%
%TO.C,D1*%
G36*
G01*
X116065000Y-75421250D02*
X116065000Y-74858750D01*
G75*
G02*
X116308750Y-74615000I243750J0D01*
G01*
X116796250Y-74615000D01*
G75*
G02*
X117040000Y-74858750I0J-243750D01*
G01*
X117040000Y-75421250D01*
G75*
G02*
X116796250Y-75665000I-243750J0D01*
G01*
X116308750Y-75665000D01*
G75*
G02*
X116065000Y-75421250I0J243750D01*
G01*
G37*
G36*
G01*
X117640000Y-75421250D02*
X117640000Y-74858750D01*
G75*
G02*
X117883750Y-74615000I243750J0D01*
G01*
X118371250Y-74615000D01*
G75*
G02*
X118615000Y-74858750I0J-243750D01*
G01*
X118615000Y-75421250D01*
G75*
G02*
X118371250Y-75665000I-243750J0D01*
G01*
X117883750Y-75665000D01*
G75*
G02*
X117640000Y-75421250I0J243750D01*
G01*
G37*
%TD*%
%TO.C,L1*%
G36*
G01*
X107590000Y-68690000D02*
X107590000Y-66190000D01*
G75*
G02*
X107640000Y-66140000I50000J0D01*
G01*
X109140000Y-66140000D01*
G75*
G02*
X109190000Y-66190000I0J-50000D01*
G01*
X109190000Y-68690000D01*
G75*
G02*
X109140000Y-68740000I-50000J0D01*
G01*
X107640000Y-68740000D01*
G75*
G02*
X107590000Y-68690000I0J50000D01*
G01*
G37*
G36*
G01*
X111290000Y-68690000D02*
X111290000Y-66190000D01*
G75*
G02*
X111340000Y-66140000I50000J0D01*
G01*
X112840000Y-66140000D01*
G75*
G02*
X112890000Y-66190000I0J-50000D01*
G01*
X112890000Y-68690000D01*
G75*
G02*
X112840000Y-68740000I-50000J0D01*
G01*
X111340000Y-68740000D01*
G75*
G02*
X111290000Y-68690000I0J50000D01*
G01*
G37*
%TD*%
%TO.C,R1*%
G36*
G01*
X116065000Y-77040000D02*
X116065000Y-76440000D01*
G75*
G02*
X116290000Y-76215000I225000J0D01*
G01*
X116740000Y-76215000D01*
G75*
G02*
X116965000Y-76440000I0J-225000D01*
G01*
X116965000Y-77040000D01*
G75*
G02*
X116740000Y-77265000I-225000J0D01*
G01*
X116290000Y-77265000D01*
G75*
G02*
X116065000Y-77040000I0J225000D01*
G01*
G37*
G36*
G01*
X117715000Y-77040000D02*
X117715000Y-76440000D01*
G75*
G02*
X117940000Y-76215000I225000J0D01*
G01*
X118390000Y-76215000D01*
G75*
G02*
X118615000Y-76440000I0J-225000D01*
G01*
X118615000Y-77040000D01*
G75*
G02*
X118390000Y-77265000I-225000J0D01*
G01*
X117940000Y-77265000D01*
G75*
G02*
X117715000Y-77040000I0J225000D01*
G01*
G37*
%TD*%
%TO.C,D3*%
G36*
G01*
X108340000Y-70640000D02*
X109440000Y-70640000D01*
G75*
G02*
X109490000Y-70690000I0J-50000D01*
G01*
X109490000Y-71790000D01*
G75*
G02*
X109440000Y-71840000I-50000J0D01*
G01*
X108340000Y-71840000D01*
G75*
G02*
X108290000Y-71790000I0J50000D01*
G01*
X108290000Y-70690000D01*
G75*
G02*
X108340000Y-70640000I50000J0D01*
G01*
G37*
G36*
G01*
X108340000Y-73440000D02*
X109440000Y-73440000D01*
G75*
G02*
X109490000Y-73490000I0J-50000D01*
G01*
X109490000Y-74590000D01*
G75*
G02*
X109440000Y-74640000I-50000J0D01*
G01*
X108340000Y-74640000D01*
G75*
G02*
X108290000Y-74590000I0J50000D01*
G01*
X108290000Y-73490000D01*
G75*
G02*
X108340000Y-73440000I50000J0D01*
G01*
G37*
%TD*%
%TO.C,U1*%
G36*
G01*
X113265000Y-73920000D02*
X112615000Y-73920000D01*
G75*
G02*
X112565000Y-73870000I0J50000D01*
G01*
X112565000Y-72810000D01*
G75*
G02*
X112615000Y-72760000I50000J0D01*
G01*
X113265000Y-72760000D01*
G75*
G02*
X113315000Y-72810000I0J-50000D01*
G01*
X113315000Y-73870000D01*
G75*
G02*
X113265000Y-73920000I-50000J0D01*
G01*
G37*
G36*
G01*
X114215000Y-73920000D02*
X113565000Y-73920000D01*
G75*
G02*
X113515000Y-73870000I0J50000D01*
G01*
X113515000Y-72810000D01*
G75*
G02*
X113565000Y-72760000I50000J0D01*
G01*
X114215000Y-72760000D01*
G75*
G02*
X114265000Y-72810000I0J-50000D01*
G01*
X114265000Y-73870000D01*
G75*
G02*
X114215000Y-73920000I-50000J0D01*
G01*
G37*
G36*
G01*
X115165000Y-73920000D02*
X114515000Y-73920000D01*
G75*
G02*
X114465000Y-73870000I0J50000D01*
G01*
X114465000Y-72810000D01*
G75*
G02*
X114515000Y-72760000I50000J0D01*
G01*
X115165000Y-72760000D01*
G75*
G02*
X115215000Y-72810000I0J-50000D01*
G01*
X115215000Y-73870000D01*
G75*
G02*
X115165000Y-73920000I-50000J0D01*
G01*
G37*
G36*
G01*
X115165000Y-71720000D02*
X114515000Y-71720000D01*
G75*
G02*
X114465000Y-71670000I0J50000D01*
G01*
X114465000Y-70610000D01*
G75*
G02*
X114515000Y-70560000I50000J0D01*
G01*
X115165000Y-70560000D01*
G75*
G02*
X115215000Y-70610000I0J-50000D01*
G01*
X115215000Y-71670000D01*
G75*
G02*
X115165000Y-71720000I-50000J0D01*
G01*
G37*
G36*
G01*
X113265000Y-71720000D02*
X112615000Y-71720000D01*
G75*
G02*
X112565000Y-71670000I0J50000D01*
G01*
X112565000Y-70610000D01*
G75*
G02*
X112615000Y-70560000I50000J0D01*
G01*
X113265000Y-70560000D01*
G75*
G02*
X113315000Y-70610000I0J-50000D01*
G01*
X113315000Y-71670000D01*
G75*
G02*
X113265000Y-71720000I-50000J0D01*
G01*
G37*
G36*
G01*
X114215000Y-71720000D02*
X113565000Y-71720000D01*
G75*
G02*
X113515000Y-71670000I0J50000D01*
G01*
X113515000Y-70610000D01*
G75*
G02*
X113565000Y-70560000I50000J0D01*
G01*
X114215000Y-70560000D01*
G75*
G02*
X114265000Y-70610000I0J-50000D01*
G01*
X114265000Y-71670000D01*
G75*
G02*
X114215000Y-71720000I-50000J0D01*
G01*
G37*
%TD*%
M02*
