%TF.GenerationSoftware,KiCad,Pcbnew,(5.1.9)-1*%
%TF.CreationDate,2021-06-07T16:13:34+02:00*%
%TF.ProjectId,16_STEP_DOWN,31365f53-5445-4505-9f44-4f574e2e6b69,rev?*%
%TF.SameCoordinates,Original*%
%TF.FileFunction,Copper,L2,Bot*%
%TF.FilePolarity,Positive*%
%FSLAX46Y46*%
G04 Gerber Fmt 4.6, Leading zero omitted, Abs format (unit mm)*
G04 Created by KiCad (PCBNEW (5.1.9)-1) date 2021-06-07 16:13:34*
%MOMM*%
%LPD*%
G01*
G04 APERTURE LIST*
%TA.AperFunction,Profile*%
%ADD10C,0.050000*%
%TD*%
%TA.AperFunction,ComponentPad*%
%ADD11C,1.524000*%
%TD*%
%TA.AperFunction,ComponentPad*%
%ADD12C,0.100000*%
%TD*%
%TA.AperFunction,ViaPad*%
%ADD13C,1.000000*%
%TD*%
%TA.AperFunction,Conductor*%
%ADD14C,0.400000*%
%TD*%
%TA.AperFunction,Conductor*%
%ADD15C,0.254000*%
%TD*%
%TA.AperFunction,Conductor*%
%ADD16C,0.100000*%
%TD*%
G04 APERTURE END LIST*
D10*
X119380000Y-67310000D02*
X120650000Y-67310000D01*
X119380000Y-64770000D02*
X119380000Y-67310000D01*
X120650000Y-64770000D02*
X119380000Y-64770000D01*
X120650000Y-62230000D02*
X120650000Y-64770000D01*
X119380000Y-62230000D02*
X120650000Y-62230000D01*
X119380000Y-60960000D02*
X119380000Y-62230000D01*
X113665000Y-60960000D02*
X119380000Y-60960000D01*
X114935000Y-81280000D02*
X120650000Y-81280000D01*
X101600000Y-62230000D02*
X101600000Y-60960000D01*
X100330000Y-62230000D02*
X101600000Y-62230000D01*
X100330000Y-64770000D02*
X100330000Y-62230000D01*
X101600000Y-67310000D02*
X100330000Y-67310000D01*
X101600000Y-74930000D02*
X101600000Y-67310000D01*
X100330000Y-74930000D02*
X101600000Y-74930000D01*
X120650000Y-67310000D02*
X120650000Y-81280000D01*
X101600000Y-60960000D02*
X113665000Y-60960000D01*
X101600000Y-80010000D02*
X101600000Y-81280000D01*
X100330000Y-80010000D02*
X101600000Y-80010000D01*
X100330000Y-64770000D02*
X100330000Y-67310000D01*
X114935000Y-81280000D02*
X101600000Y-81280000D01*
X100330000Y-80010000D02*
X100330000Y-74930000D01*
D11*
%TO.P,J5,1*%
%TO.N,EN*%
X101600000Y-76200000D03*
%TA.AperFunction,ComponentPad*%
D12*
G36*
X101928132Y-77049917D02*
G01*
X101845251Y-77044703D01*
X101763275Y-77031425D01*
X101682986Y-77010212D01*
X101605149Y-76981265D01*
X101530509Y-76944861D01*
X101459778Y-76901346D01*
X101393631Y-76851138D01*
X101332698Y-76794714D01*
X101277563Y-76732613D01*
X101228750Y-76665429D01*
X101186727Y-76593802D01*
X101151894Y-76518416D01*
X101124583Y-76439990D01*
X101105056Y-76359274D01*
X101093498Y-76277038D01*
X101090021Y-76194066D01*
X101094656Y-76111151D01*
X101107361Y-76029084D01*
X101128013Y-75948648D01*
X101156416Y-75870612D01*
X101192299Y-75795719D01*
X101235318Y-75724686D01*
X101285064Y-75658190D01*
X101341061Y-75596865D01*
X101402775Y-75541297D01*
X101469617Y-75492017D01*
X101540949Y-75449495D01*
X101616090Y-75414136D01*
X101694323Y-75386278D01*
X101774901Y-75366188D01*
X101857055Y-75354057D01*
X101940000Y-75350000D01*
X104990000Y-75350000D01*
X104990000Y-77050000D01*
X101940000Y-77050000D01*
X101928132Y-77049917D01*
G37*
%TD.AperFunction*%
%TD*%
D11*
%TO.P,J1,1*%
%TO.N,GND*%
X101600000Y-78740000D03*
%TA.AperFunction,ComponentPad*%
D12*
G36*
X101928132Y-79589917D02*
G01*
X101845251Y-79584703D01*
X101763275Y-79571425D01*
X101682986Y-79550212D01*
X101605149Y-79521265D01*
X101530509Y-79484861D01*
X101459778Y-79441346D01*
X101393631Y-79391138D01*
X101332698Y-79334714D01*
X101277563Y-79272613D01*
X101228750Y-79205429D01*
X101186727Y-79133802D01*
X101151894Y-79058416D01*
X101124583Y-78979990D01*
X101105056Y-78899274D01*
X101093498Y-78817038D01*
X101090021Y-78734066D01*
X101094656Y-78651151D01*
X101107361Y-78569084D01*
X101128013Y-78488648D01*
X101156416Y-78410612D01*
X101192299Y-78335719D01*
X101235318Y-78264686D01*
X101285064Y-78198190D01*
X101341061Y-78136865D01*
X101402775Y-78081297D01*
X101469617Y-78032017D01*
X101540949Y-77989495D01*
X101616090Y-77954136D01*
X101694323Y-77926278D01*
X101774901Y-77906188D01*
X101857055Y-77894057D01*
X101940000Y-77890000D01*
X104990000Y-77890000D01*
X104990000Y-79590000D01*
X101940000Y-79590000D01*
X101928132Y-79589917D01*
G37*
%TD.AperFunction*%
%TD*%
D11*
%TO.P,J3,1*%
%TO.N,V_BRUT*%
X101600000Y-63500000D03*
%TA.AperFunction,ComponentPad*%
D12*
G36*
X101928132Y-64349917D02*
G01*
X101845251Y-64344703D01*
X101763275Y-64331425D01*
X101682986Y-64310212D01*
X101605149Y-64281265D01*
X101530509Y-64244861D01*
X101459778Y-64201346D01*
X101393631Y-64151138D01*
X101332698Y-64094714D01*
X101277563Y-64032613D01*
X101228750Y-63965429D01*
X101186727Y-63893802D01*
X101151894Y-63818416D01*
X101124583Y-63739990D01*
X101105056Y-63659274D01*
X101093498Y-63577038D01*
X101090021Y-63494066D01*
X101094656Y-63411151D01*
X101107361Y-63329084D01*
X101128013Y-63248648D01*
X101156416Y-63170612D01*
X101192299Y-63095719D01*
X101235318Y-63024686D01*
X101285064Y-62958190D01*
X101341061Y-62896865D01*
X101402775Y-62841297D01*
X101469617Y-62792017D01*
X101540949Y-62749495D01*
X101616090Y-62714136D01*
X101694323Y-62686278D01*
X101774901Y-62666188D01*
X101857055Y-62654057D01*
X101940000Y-62650000D01*
X104990000Y-62650000D01*
X104990000Y-64350000D01*
X101940000Y-64350000D01*
X101928132Y-64349917D01*
G37*
%TD.AperFunction*%
%TD*%
D11*
%TO.P,J4,1*%
%TO.N,5V*%
X101600000Y-66040000D03*
%TA.AperFunction,ComponentPad*%
D12*
G36*
X101928132Y-66889917D02*
G01*
X101845251Y-66884703D01*
X101763275Y-66871425D01*
X101682986Y-66850212D01*
X101605149Y-66821265D01*
X101530509Y-66784861D01*
X101459778Y-66741346D01*
X101393631Y-66691138D01*
X101332698Y-66634714D01*
X101277563Y-66572613D01*
X101228750Y-66505429D01*
X101186727Y-66433802D01*
X101151894Y-66358416D01*
X101124583Y-66279990D01*
X101105056Y-66199274D01*
X101093498Y-66117038D01*
X101090021Y-66034066D01*
X101094656Y-65951151D01*
X101107361Y-65869084D01*
X101128013Y-65788648D01*
X101156416Y-65710612D01*
X101192299Y-65635719D01*
X101235318Y-65564686D01*
X101285064Y-65498190D01*
X101341061Y-65436865D01*
X101402775Y-65381297D01*
X101469617Y-65332017D01*
X101540949Y-65289495D01*
X101616090Y-65254136D01*
X101694323Y-65226278D01*
X101774901Y-65206188D01*
X101857055Y-65194057D01*
X101940000Y-65190000D01*
X104990000Y-65190000D01*
X104990000Y-66890000D01*
X101940000Y-66890000D01*
X101928132Y-66889917D01*
G37*
%TD.AperFunction*%
%TD*%
D11*
%TO.P,J2,1*%
%TO.N,GND*%
X119380000Y-63500000D03*
%TA.AperFunction,ComponentPad*%
D12*
G36*
X119051868Y-62650083D02*
G01*
X119134749Y-62655297D01*
X119216725Y-62668575D01*
X119297014Y-62689788D01*
X119374851Y-62718735D01*
X119449491Y-62755139D01*
X119520222Y-62798654D01*
X119586369Y-62848862D01*
X119647302Y-62905286D01*
X119702437Y-62967387D01*
X119751250Y-63034571D01*
X119793273Y-63106198D01*
X119828106Y-63181584D01*
X119855417Y-63260010D01*
X119874944Y-63340726D01*
X119886502Y-63422962D01*
X119889979Y-63505934D01*
X119885344Y-63588849D01*
X119872639Y-63670916D01*
X119851987Y-63751352D01*
X119823584Y-63829388D01*
X119787701Y-63904281D01*
X119744682Y-63975314D01*
X119694936Y-64041810D01*
X119638939Y-64103135D01*
X119577225Y-64158703D01*
X119510383Y-64207983D01*
X119439051Y-64250505D01*
X119363910Y-64285864D01*
X119285677Y-64313722D01*
X119205099Y-64333812D01*
X119122945Y-64345943D01*
X119040000Y-64350000D01*
X115990000Y-64350000D01*
X115990000Y-62650000D01*
X119040000Y-62650000D01*
X119051868Y-62650083D01*
G37*
%TD.AperFunction*%
%TD*%
D13*
%TO.N,GND*%
X118140000Y-80240000D03*
X119640000Y-80240000D03*
X119640000Y-78740000D03*
X119640000Y-77240000D03*
X119640000Y-72740000D03*
X119640000Y-74240000D03*
X119640000Y-75740000D03*
X116640000Y-80240000D03*
X115140000Y-80240000D03*
X113640000Y-80240000D03*
X112140000Y-80240000D03*
X110640000Y-80240000D03*
X109140000Y-80240000D03*
X107640000Y-80240000D03*
X106140000Y-80240000D03*
X119640000Y-71240000D03*
X119640000Y-71240000D03*
X119640000Y-69740000D03*
X119640000Y-68240000D03*
X118640000Y-67240000D03*
X118640000Y-65740000D03*
X102640000Y-73740000D03*
X104140000Y-73740000D03*
X102640000Y-72240000D03*
X102640000Y-70740000D03*
%TO.N,5V*%
X117465000Y-70640000D03*
%TO.N,EN*%
X115140000Y-69840000D03*
%TD*%
D14*
%TO.N,5V*%
X113640000Y-66040000D02*
X104140000Y-66040000D01*
X116840000Y-69240000D02*
X113640000Y-66040000D01*
X116840000Y-70015000D02*
X116840000Y-69740000D01*
X117465000Y-70640000D02*
X116840000Y-70015000D01*
X116840000Y-69740000D02*
X116840000Y-69240000D01*
%TO.N,EN*%
X108820000Y-71520000D02*
X104140000Y-76200000D01*
X110500000Y-69840000D02*
X108820000Y-71520000D01*
X115140000Y-69840000D02*
X110500000Y-69840000D01*
%TD*%
D15*
%TO.N,GND*%
X118720001Y-62197571D02*
X118716807Y-62230000D01*
X118720037Y-62262799D01*
X118661020Y-62294344D01*
X118594040Y-62534435D01*
X119380000Y-63320395D01*
X119394143Y-63306253D01*
X119573748Y-63485858D01*
X119559605Y-63500000D01*
X119573748Y-63514143D01*
X119394143Y-63693748D01*
X119380000Y-63679605D01*
X118594040Y-64465565D01*
X118661020Y-64705656D01*
X118720394Y-64733576D01*
X118716807Y-64770000D01*
X118720000Y-64802418D01*
X118720001Y-67277571D01*
X118716807Y-67310000D01*
X118729550Y-67439383D01*
X118767290Y-67563793D01*
X118828575Y-67678450D01*
X118911052Y-67778948D01*
X119011550Y-67861425D01*
X119126207Y-67922710D01*
X119250617Y-67960450D01*
X119347581Y-67970000D01*
X119380000Y-67973193D01*
X119412419Y-67970000D01*
X119990000Y-67970000D01*
X119990001Y-80620000D01*
X102260000Y-80620000D01*
X102260000Y-80042418D01*
X102263193Y-80010000D01*
X102259963Y-79977201D01*
X102318980Y-79945656D01*
X102385960Y-79705565D01*
X101600000Y-78919605D01*
X101585858Y-78933748D01*
X101406253Y-78754143D01*
X101420395Y-78740000D01*
X101779605Y-78740000D01*
X102565565Y-79525960D01*
X102805656Y-79458980D01*
X102922756Y-79209952D01*
X102989023Y-78942865D01*
X103001910Y-78667983D01*
X102960922Y-78395867D01*
X102867636Y-78136977D01*
X102805656Y-78021020D01*
X102565565Y-77954040D01*
X101779605Y-78740000D01*
X101420395Y-78740000D01*
X101406253Y-78725858D01*
X101585858Y-78546253D01*
X101600000Y-78560395D01*
X102385960Y-77774435D01*
X102361867Y-77688072D01*
X104990000Y-77688072D01*
X105114482Y-77675812D01*
X105234180Y-77639502D01*
X105344494Y-77580537D01*
X105441185Y-77501185D01*
X105520537Y-77404494D01*
X105579502Y-77294180D01*
X105615812Y-77174482D01*
X105628072Y-77050000D01*
X105628072Y-75892795D01*
X109439438Y-72081430D01*
X109439442Y-72081425D01*
X110845869Y-70675000D01*
X114369868Y-70675000D01*
X114416480Y-70721612D01*
X114602376Y-70845824D01*
X114808933Y-70931383D01*
X115028212Y-70975000D01*
X115251788Y-70975000D01*
X115471067Y-70931383D01*
X115677624Y-70845824D01*
X115863520Y-70721612D01*
X116021612Y-70563520D01*
X116113160Y-70426509D01*
X116142364Y-70481145D01*
X116246709Y-70608291D01*
X116278578Y-70634446D01*
X116330000Y-70685867D01*
X116330000Y-70751788D01*
X116373617Y-70971067D01*
X116459176Y-71177624D01*
X116583388Y-71363520D01*
X116741480Y-71521612D01*
X116927376Y-71645824D01*
X117133933Y-71731383D01*
X117353212Y-71775000D01*
X117576788Y-71775000D01*
X117796067Y-71731383D01*
X118002624Y-71645824D01*
X118188520Y-71521612D01*
X118346612Y-71363520D01*
X118470824Y-71177624D01*
X118556383Y-70971067D01*
X118600000Y-70751788D01*
X118600000Y-70528212D01*
X118556383Y-70308933D01*
X118470824Y-70102376D01*
X118346612Y-69916480D01*
X118188520Y-69758388D01*
X118002624Y-69634176D01*
X117796067Y-69548617D01*
X117675000Y-69524535D01*
X117675000Y-69281007D01*
X117679039Y-69239999D01*
X117675000Y-69198991D01*
X117675000Y-69198981D01*
X117662918Y-69076311D01*
X117615172Y-68918913D01*
X117537636Y-68773854D01*
X117433291Y-68646709D01*
X117401427Y-68620559D01*
X114259446Y-65478579D01*
X114233291Y-65446709D01*
X114106146Y-65342364D01*
X113961087Y-65264828D01*
X113803689Y-65217082D01*
X113681019Y-65205000D01*
X113681018Y-65205000D01*
X113640000Y-65200960D01*
X113598982Y-65205000D01*
X105628072Y-65205000D01*
X105628072Y-65190000D01*
X105615812Y-65065518D01*
X105579502Y-64945820D01*
X105520537Y-64835506D01*
X105466778Y-64770000D01*
X105520537Y-64704494D01*
X105579502Y-64594180D01*
X105615812Y-64474482D01*
X105628072Y-64350000D01*
X105628072Y-63572017D01*
X117978090Y-63572017D01*
X118019078Y-63844133D01*
X118112364Y-64103023D01*
X118174344Y-64218980D01*
X118414435Y-64285960D01*
X119200395Y-63500000D01*
X118414435Y-62714040D01*
X118174344Y-62781020D01*
X118057244Y-63030048D01*
X117990977Y-63297135D01*
X117978090Y-63572017D01*
X105628072Y-63572017D01*
X105628072Y-62650000D01*
X105615812Y-62525518D01*
X105579502Y-62405820D01*
X105520537Y-62295506D01*
X105441185Y-62198815D01*
X105344494Y-62119463D01*
X105234180Y-62060498D01*
X105114482Y-62024188D01*
X104990000Y-62011928D01*
X102260000Y-62011928D01*
X102260000Y-61620000D01*
X118720001Y-61620000D01*
X118720001Y-62197571D01*
%TA.AperFunction,Conductor*%
D16*
G36*
X118720001Y-62197571D02*
G01*
X118716807Y-62230000D01*
X118720037Y-62262799D01*
X118661020Y-62294344D01*
X118594040Y-62534435D01*
X119380000Y-63320395D01*
X119394143Y-63306253D01*
X119573748Y-63485858D01*
X119559605Y-63500000D01*
X119573748Y-63514143D01*
X119394143Y-63693748D01*
X119380000Y-63679605D01*
X118594040Y-64465565D01*
X118661020Y-64705656D01*
X118720394Y-64733576D01*
X118716807Y-64770000D01*
X118720000Y-64802418D01*
X118720001Y-67277571D01*
X118716807Y-67310000D01*
X118729550Y-67439383D01*
X118767290Y-67563793D01*
X118828575Y-67678450D01*
X118911052Y-67778948D01*
X119011550Y-67861425D01*
X119126207Y-67922710D01*
X119250617Y-67960450D01*
X119347581Y-67970000D01*
X119380000Y-67973193D01*
X119412419Y-67970000D01*
X119990000Y-67970000D01*
X119990001Y-80620000D01*
X102260000Y-80620000D01*
X102260000Y-80042418D01*
X102263193Y-80010000D01*
X102259963Y-79977201D01*
X102318980Y-79945656D01*
X102385960Y-79705565D01*
X101600000Y-78919605D01*
X101585858Y-78933748D01*
X101406253Y-78754143D01*
X101420395Y-78740000D01*
X101779605Y-78740000D01*
X102565565Y-79525960D01*
X102805656Y-79458980D01*
X102922756Y-79209952D01*
X102989023Y-78942865D01*
X103001910Y-78667983D01*
X102960922Y-78395867D01*
X102867636Y-78136977D01*
X102805656Y-78021020D01*
X102565565Y-77954040D01*
X101779605Y-78740000D01*
X101420395Y-78740000D01*
X101406253Y-78725858D01*
X101585858Y-78546253D01*
X101600000Y-78560395D01*
X102385960Y-77774435D01*
X102361867Y-77688072D01*
X104990000Y-77688072D01*
X105114482Y-77675812D01*
X105234180Y-77639502D01*
X105344494Y-77580537D01*
X105441185Y-77501185D01*
X105520537Y-77404494D01*
X105579502Y-77294180D01*
X105615812Y-77174482D01*
X105628072Y-77050000D01*
X105628072Y-75892795D01*
X109439438Y-72081430D01*
X109439442Y-72081425D01*
X110845869Y-70675000D01*
X114369868Y-70675000D01*
X114416480Y-70721612D01*
X114602376Y-70845824D01*
X114808933Y-70931383D01*
X115028212Y-70975000D01*
X115251788Y-70975000D01*
X115471067Y-70931383D01*
X115677624Y-70845824D01*
X115863520Y-70721612D01*
X116021612Y-70563520D01*
X116113160Y-70426509D01*
X116142364Y-70481145D01*
X116246709Y-70608291D01*
X116278578Y-70634446D01*
X116330000Y-70685867D01*
X116330000Y-70751788D01*
X116373617Y-70971067D01*
X116459176Y-71177624D01*
X116583388Y-71363520D01*
X116741480Y-71521612D01*
X116927376Y-71645824D01*
X117133933Y-71731383D01*
X117353212Y-71775000D01*
X117576788Y-71775000D01*
X117796067Y-71731383D01*
X118002624Y-71645824D01*
X118188520Y-71521612D01*
X118346612Y-71363520D01*
X118470824Y-71177624D01*
X118556383Y-70971067D01*
X118600000Y-70751788D01*
X118600000Y-70528212D01*
X118556383Y-70308933D01*
X118470824Y-70102376D01*
X118346612Y-69916480D01*
X118188520Y-69758388D01*
X118002624Y-69634176D01*
X117796067Y-69548617D01*
X117675000Y-69524535D01*
X117675000Y-69281007D01*
X117679039Y-69239999D01*
X117675000Y-69198991D01*
X117675000Y-69198981D01*
X117662918Y-69076311D01*
X117615172Y-68918913D01*
X117537636Y-68773854D01*
X117433291Y-68646709D01*
X117401427Y-68620559D01*
X114259446Y-65478579D01*
X114233291Y-65446709D01*
X114106146Y-65342364D01*
X113961087Y-65264828D01*
X113803689Y-65217082D01*
X113681019Y-65205000D01*
X113681018Y-65205000D01*
X113640000Y-65200960D01*
X113598982Y-65205000D01*
X105628072Y-65205000D01*
X105628072Y-65190000D01*
X105615812Y-65065518D01*
X105579502Y-64945820D01*
X105520537Y-64835506D01*
X105466778Y-64770000D01*
X105520537Y-64704494D01*
X105579502Y-64594180D01*
X105615812Y-64474482D01*
X105628072Y-64350000D01*
X105628072Y-63572017D01*
X117978090Y-63572017D01*
X118019078Y-63844133D01*
X118112364Y-64103023D01*
X118174344Y-64218980D01*
X118414435Y-64285960D01*
X119200395Y-63500000D01*
X118414435Y-62714040D01*
X118174344Y-62781020D01*
X118057244Y-63030048D01*
X117990977Y-63297135D01*
X117978090Y-63572017D01*
X105628072Y-63572017D01*
X105628072Y-62650000D01*
X105615812Y-62525518D01*
X105579502Y-62405820D01*
X105520537Y-62295506D01*
X105441185Y-62198815D01*
X105344494Y-62119463D01*
X105234180Y-62060498D01*
X105114482Y-62024188D01*
X104990000Y-62011928D01*
X102260000Y-62011928D01*
X102260000Y-61620000D01*
X118720001Y-61620000D01*
X118720001Y-62197571D01*
G37*
%TD.AperFunction*%
D15*
X115124132Y-68705000D02*
X115028212Y-68705000D01*
X114808933Y-68748617D01*
X114602376Y-68834176D01*
X114416480Y-68958388D01*
X114369868Y-69005000D01*
X110541018Y-69005000D01*
X110500000Y-69000960D01*
X110458982Y-69005000D01*
X110458981Y-69005000D01*
X110336311Y-69017082D01*
X110178913Y-69064828D01*
X110033854Y-69142364D01*
X109964866Y-69198981D01*
X109906709Y-69246709D01*
X109880563Y-69278568D01*
X108258575Y-70900558D01*
X108258570Y-70900562D01*
X104447205Y-74711928D01*
X102260000Y-74711928D01*
X102260000Y-67528072D01*
X104990000Y-67528072D01*
X105114482Y-67515812D01*
X105234180Y-67479502D01*
X105344494Y-67420537D01*
X105441185Y-67341185D01*
X105520537Y-67244494D01*
X105579502Y-67134180D01*
X105615812Y-67014482D01*
X105628072Y-66890000D01*
X105628072Y-66875000D01*
X113294133Y-66875000D01*
X115124132Y-68705000D01*
%TA.AperFunction,Conductor*%
D16*
G36*
X115124132Y-68705000D02*
G01*
X115028212Y-68705000D01*
X114808933Y-68748617D01*
X114602376Y-68834176D01*
X114416480Y-68958388D01*
X114369868Y-69005000D01*
X110541018Y-69005000D01*
X110500000Y-69000960D01*
X110458982Y-69005000D01*
X110458981Y-69005000D01*
X110336311Y-69017082D01*
X110178913Y-69064828D01*
X110033854Y-69142364D01*
X109964866Y-69198981D01*
X109906709Y-69246709D01*
X109880563Y-69278568D01*
X108258575Y-70900558D01*
X108258570Y-70900562D01*
X104447205Y-74711928D01*
X102260000Y-74711928D01*
X102260000Y-67528072D01*
X104990000Y-67528072D01*
X105114482Y-67515812D01*
X105234180Y-67479502D01*
X105344494Y-67420537D01*
X105441185Y-67341185D01*
X105520537Y-67244494D01*
X105579502Y-67134180D01*
X105615812Y-67014482D01*
X105628072Y-66890000D01*
X105628072Y-66875000D01*
X113294133Y-66875000D01*
X115124132Y-68705000D01*
G37*
%TD.AperFunction*%
%TD*%
M02*
