M48
; DRILL file {KiCad (5.1.9)-1} date 06/07/21 16:13:37
; FORMAT={-:-/ absolute / inch / decimal}
; #@! TF.CreationDate,2021-06-07T16:13:37+02:00
; #@! TF.GenerationSoftware,Kicad,Pcbnew,(5.1.9)-1
; #@! TF.FileFunction,Plated,1,2,PTH
FMAT,2
INCH
T1C0.0236
T2C0.0300
T3C0.0394
%
G90
G05
T1
X4.0409Y-2.785
X4.0409Y-2.8441
X4.0409Y-2.9031
X4.1Y-2.9031
X4.1787Y-3.1591
X4.2378Y-3.1591
X4.2969Y-3.1591
X4.3559Y-3.1591
X4.415Y-3.1591
X4.474Y-3.1591
X4.5331Y-2.7496
X4.5331Y-3.1591
X4.5921Y-3.1591
X4.6246Y-2.7811
X4.6512Y-3.1591
X4.6709Y-2.5882
X4.6709Y-2.6472
X4.7102Y-2.6866
X4.7102Y-2.7457
X4.7102Y-2.8047
X4.7102Y-2.8047
X4.7102Y-2.8638
X4.7102Y-2.9228
X4.7102Y-2.9819
X4.7102Y-3.0409
X4.7102Y-3.1
X4.7102Y-3.1591
T2
X4.0Y-2.5
X4.0Y-2.6
X4.0Y-3.0
X4.0Y-3.1
X4.7Y-2.5
T3
X4.1Y-2.5
X4.1Y-2.6
X4.1Y-3.0
X4.1Y-3.1
X4.6Y-2.5
T0
M30
