%TF.GenerationSoftware,KiCad,Pcbnew,(5.1.9)-1*%
%TF.CreationDate,2021-06-07T16:13:34+02:00*%
%TF.ProjectId,16_STEP_DOWN,31365f53-5445-4505-9f44-4f574e2e6b69,rev?*%
%TF.SameCoordinates,Original*%
%TF.FileFunction,Copper,L1,Top*%
%TF.FilePolarity,Positive*%
%FSLAX46Y46*%
G04 Gerber Fmt 4.6, Leading zero omitted, Abs format (unit mm)*
G04 Created by KiCad (PCBNEW (5.1.9)-1) date 2021-06-07 16:13:34*
%MOMM*%
%LPD*%
G01*
G04 APERTURE LIST*
%TA.AperFunction,Profile*%
%ADD10C,0.050000*%
%TD*%
%TA.AperFunction,ComponentPad*%
%ADD11C,1.524000*%
%TD*%
%TA.AperFunction,ComponentPad*%
%ADD12C,0.100000*%
%TD*%
%TA.AperFunction,SMDPad,CuDef*%
%ADD13R,1.100000X1.100000*%
%TD*%
%TA.AperFunction,SMDPad,CuDef*%
%ADD14R,1.500000X2.500000*%
%TD*%
%TA.AperFunction,SMDPad,CuDef*%
%ADD15R,0.650000X1.060000*%
%TD*%
%TA.AperFunction,ViaPad*%
%ADD16C,1.000000*%
%TD*%
%TA.AperFunction,Conductor*%
%ADD17C,0.400000*%
%TD*%
%TA.AperFunction,Conductor*%
%ADD18C,0.254000*%
%TD*%
%TA.AperFunction,Conductor*%
%ADD19C,0.100000*%
%TD*%
G04 APERTURE END LIST*
D10*
X119380000Y-67310000D02*
X120650000Y-67310000D01*
X119380000Y-64770000D02*
X119380000Y-67310000D01*
X120650000Y-64770000D02*
X119380000Y-64770000D01*
X120650000Y-62230000D02*
X120650000Y-64770000D01*
X119380000Y-62230000D02*
X120650000Y-62230000D01*
X119380000Y-60960000D02*
X119380000Y-62230000D01*
X113665000Y-60960000D02*
X119380000Y-60960000D01*
X114935000Y-81280000D02*
X120650000Y-81280000D01*
X101600000Y-62230000D02*
X101600000Y-60960000D01*
X100330000Y-62230000D02*
X101600000Y-62230000D01*
X100330000Y-64770000D02*
X100330000Y-62230000D01*
X101600000Y-67310000D02*
X100330000Y-67310000D01*
X101600000Y-74930000D02*
X101600000Y-67310000D01*
X100330000Y-74930000D02*
X101600000Y-74930000D01*
X120650000Y-67310000D02*
X120650000Y-81280000D01*
X101600000Y-60960000D02*
X113665000Y-60960000D01*
X101600000Y-80010000D02*
X101600000Y-81280000D01*
X100330000Y-80010000D02*
X101600000Y-80010000D01*
X100330000Y-64770000D02*
X100330000Y-67310000D01*
X114935000Y-81280000D02*
X101600000Y-81280000D01*
X100330000Y-80010000D02*
X100330000Y-74930000D01*
%TO.P,C5,1*%
%TO.N,5V*%
%TA.AperFunction,SMDPad,CuDef*%
G36*
G01*
X118615000Y-73240000D02*
X118615000Y-73740000D01*
G75*
G02*
X118390000Y-73965000I-225000J0D01*
G01*
X117940000Y-73965000D01*
G75*
G02*
X117715000Y-73740000I0J225000D01*
G01*
X117715000Y-73240000D01*
G75*
G02*
X117940000Y-73015000I225000J0D01*
G01*
X118390000Y-73015000D01*
G75*
G02*
X118615000Y-73240000I0J-225000D01*
G01*
G37*
%TD.AperFunction*%
%TO.P,C5,2*%
%TO.N,Net-(C5-Pad2)*%
%TA.AperFunction,SMDPad,CuDef*%
G36*
G01*
X117065000Y-73240000D02*
X117065000Y-73740000D01*
G75*
G02*
X116840000Y-73965000I-225000J0D01*
G01*
X116390000Y-73965000D01*
G75*
G02*
X116165000Y-73740000I0J225000D01*
G01*
X116165000Y-73240000D01*
G75*
G02*
X116390000Y-73015000I225000J0D01*
G01*
X116840000Y-73015000D01*
G75*
G02*
X117065000Y-73240000I0J-225000D01*
G01*
G37*
%TD.AperFunction*%
%TD*%
%TO.P,R3,2*%
%TO.N,GND*%
%TA.AperFunction,SMDPad,CuDef*%
G36*
G01*
X117765000Y-69515000D02*
X117765000Y-68965000D01*
G75*
G02*
X117965000Y-68765000I200000J0D01*
G01*
X118365000Y-68765000D01*
G75*
G02*
X118565000Y-68965000I0J-200000D01*
G01*
X118565000Y-69515000D01*
G75*
G02*
X118365000Y-69715000I-200000J0D01*
G01*
X117965000Y-69715000D01*
G75*
G02*
X117765000Y-69515000I0J200000D01*
G01*
G37*
%TD.AperFunction*%
%TO.P,R3,1*%
%TO.N,Net-(C5-Pad2)*%
%TA.AperFunction,SMDPad,CuDef*%
G36*
G01*
X116115000Y-69515000D02*
X116115000Y-68965000D01*
G75*
G02*
X116315000Y-68765000I200000J0D01*
G01*
X116715000Y-68765000D01*
G75*
G02*
X116915000Y-68965000I0J-200000D01*
G01*
X116915000Y-69515000D01*
G75*
G02*
X116715000Y-69715000I-200000J0D01*
G01*
X116315000Y-69715000D01*
G75*
G02*
X116115000Y-69515000I0J200000D01*
G01*
G37*
%TD.AperFunction*%
%TD*%
%TO.P,R2,1*%
%TO.N,5V*%
%TA.AperFunction,SMDPad,CuDef*%
G36*
G01*
X118615000Y-71665000D02*
X118615000Y-72215000D01*
G75*
G02*
X118415000Y-72415000I-200000J0D01*
G01*
X118015000Y-72415000D01*
G75*
G02*
X117815000Y-72215000I0J200000D01*
G01*
X117815000Y-71665000D01*
G75*
G02*
X118015000Y-71465000I200000J0D01*
G01*
X118415000Y-71465000D01*
G75*
G02*
X118615000Y-71665000I0J-200000D01*
G01*
G37*
%TD.AperFunction*%
%TO.P,R2,2*%
%TO.N,Net-(C5-Pad2)*%
%TA.AperFunction,SMDPad,CuDef*%
G36*
G01*
X116965000Y-71665000D02*
X116965000Y-72215000D01*
G75*
G02*
X116765000Y-72415000I-200000J0D01*
G01*
X116365000Y-72415000D01*
G75*
G02*
X116165000Y-72215000I0J200000D01*
G01*
X116165000Y-71665000D01*
G75*
G02*
X116365000Y-71465000I200000J0D01*
G01*
X116765000Y-71465000D01*
G75*
G02*
X116965000Y-71665000I0J-200000D01*
G01*
G37*
%TD.AperFunction*%
%TD*%
D11*
%TO.P,J5,1*%
%TO.N,EN*%
X101600000Y-76200000D03*
%TA.AperFunction,ComponentPad*%
D12*
G36*
X101928132Y-77049917D02*
G01*
X101845251Y-77044703D01*
X101763275Y-77031425D01*
X101682986Y-77010212D01*
X101605149Y-76981265D01*
X101530509Y-76944861D01*
X101459778Y-76901346D01*
X101393631Y-76851138D01*
X101332698Y-76794714D01*
X101277563Y-76732613D01*
X101228750Y-76665429D01*
X101186727Y-76593802D01*
X101151894Y-76518416D01*
X101124583Y-76439990D01*
X101105056Y-76359274D01*
X101093498Y-76277038D01*
X101090021Y-76194066D01*
X101094656Y-76111151D01*
X101107361Y-76029084D01*
X101128013Y-75948648D01*
X101156416Y-75870612D01*
X101192299Y-75795719D01*
X101235318Y-75724686D01*
X101285064Y-75658190D01*
X101341061Y-75596865D01*
X101402775Y-75541297D01*
X101469617Y-75492017D01*
X101540949Y-75449495D01*
X101616090Y-75414136D01*
X101694323Y-75386278D01*
X101774901Y-75366188D01*
X101857055Y-75354057D01*
X101940000Y-75350000D01*
X104990000Y-75350000D01*
X104990000Y-77050000D01*
X101940000Y-77050000D01*
X101928132Y-77049917D01*
G37*
%TD.AperFunction*%
%TD*%
D11*
%TO.P,J1,1*%
%TO.N,GND*%
X101600000Y-78740000D03*
%TA.AperFunction,ComponentPad*%
D12*
G36*
X101928132Y-79589917D02*
G01*
X101845251Y-79584703D01*
X101763275Y-79571425D01*
X101682986Y-79550212D01*
X101605149Y-79521265D01*
X101530509Y-79484861D01*
X101459778Y-79441346D01*
X101393631Y-79391138D01*
X101332698Y-79334714D01*
X101277563Y-79272613D01*
X101228750Y-79205429D01*
X101186727Y-79133802D01*
X101151894Y-79058416D01*
X101124583Y-78979990D01*
X101105056Y-78899274D01*
X101093498Y-78817038D01*
X101090021Y-78734066D01*
X101094656Y-78651151D01*
X101107361Y-78569084D01*
X101128013Y-78488648D01*
X101156416Y-78410612D01*
X101192299Y-78335719D01*
X101235318Y-78264686D01*
X101285064Y-78198190D01*
X101341061Y-78136865D01*
X101402775Y-78081297D01*
X101469617Y-78032017D01*
X101540949Y-77989495D01*
X101616090Y-77954136D01*
X101694323Y-77926278D01*
X101774901Y-77906188D01*
X101857055Y-77894057D01*
X101940000Y-77890000D01*
X104990000Y-77890000D01*
X104990000Y-79590000D01*
X101940000Y-79590000D01*
X101928132Y-79589917D01*
G37*
%TD.AperFunction*%
%TD*%
D11*
%TO.P,J3,1*%
%TO.N,V_BRUT*%
X101600000Y-63500000D03*
%TA.AperFunction,ComponentPad*%
D12*
G36*
X101928132Y-64349917D02*
G01*
X101845251Y-64344703D01*
X101763275Y-64331425D01*
X101682986Y-64310212D01*
X101605149Y-64281265D01*
X101530509Y-64244861D01*
X101459778Y-64201346D01*
X101393631Y-64151138D01*
X101332698Y-64094714D01*
X101277563Y-64032613D01*
X101228750Y-63965429D01*
X101186727Y-63893802D01*
X101151894Y-63818416D01*
X101124583Y-63739990D01*
X101105056Y-63659274D01*
X101093498Y-63577038D01*
X101090021Y-63494066D01*
X101094656Y-63411151D01*
X101107361Y-63329084D01*
X101128013Y-63248648D01*
X101156416Y-63170612D01*
X101192299Y-63095719D01*
X101235318Y-63024686D01*
X101285064Y-62958190D01*
X101341061Y-62896865D01*
X101402775Y-62841297D01*
X101469617Y-62792017D01*
X101540949Y-62749495D01*
X101616090Y-62714136D01*
X101694323Y-62686278D01*
X101774901Y-62666188D01*
X101857055Y-62654057D01*
X101940000Y-62650000D01*
X104990000Y-62650000D01*
X104990000Y-64350000D01*
X101940000Y-64350000D01*
X101928132Y-64349917D01*
G37*
%TD.AperFunction*%
%TD*%
D11*
%TO.P,J4,1*%
%TO.N,5V*%
X101600000Y-66040000D03*
%TA.AperFunction,ComponentPad*%
D12*
G36*
X101928132Y-66889917D02*
G01*
X101845251Y-66884703D01*
X101763275Y-66871425D01*
X101682986Y-66850212D01*
X101605149Y-66821265D01*
X101530509Y-66784861D01*
X101459778Y-66741346D01*
X101393631Y-66691138D01*
X101332698Y-66634714D01*
X101277563Y-66572613D01*
X101228750Y-66505429D01*
X101186727Y-66433802D01*
X101151894Y-66358416D01*
X101124583Y-66279990D01*
X101105056Y-66199274D01*
X101093498Y-66117038D01*
X101090021Y-66034066D01*
X101094656Y-65951151D01*
X101107361Y-65869084D01*
X101128013Y-65788648D01*
X101156416Y-65710612D01*
X101192299Y-65635719D01*
X101235318Y-65564686D01*
X101285064Y-65498190D01*
X101341061Y-65436865D01*
X101402775Y-65381297D01*
X101469617Y-65332017D01*
X101540949Y-65289495D01*
X101616090Y-65254136D01*
X101694323Y-65226278D01*
X101774901Y-65206188D01*
X101857055Y-65194057D01*
X101940000Y-65190000D01*
X104990000Y-65190000D01*
X104990000Y-66890000D01*
X101940000Y-66890000D01*
X101928132Y-66889917D01*
G37*
%TD.AperFunction*%
%TD*%
D11*
%TO.P,J2,1*%
%TO.N,GND*%
X119380000Y-63500000D03*
%TA.AperFunction,ComponentPad*%
D12*
G36*
X119051868Y-62650083D02*
G01*
X119134749Y-62655297D01*
X119216725Y-62668575D01*
X119297014Y-62689788D01*
X119374851Y-62718735D01*
X119449491Y-62755139D01*
X119520222Y-62798654D01*
X119586369Y-62848862D01*
X119647302Y-62905286D01*
X119702437Y-62967387D01*
X119751250Y-63034571D01*
X119793273Y-63106198D01*
X119828106Y-63181584D01*
X119855417Y-63260010D01*
X119874944Y-63340726D01*
X119886502Y-63422962D01*
X119889979Y-63505934D01*
X119885344Y-63588849D01*
X119872639Y-63670916D01*
X119851987Y-63751352D01*
X119823584Y-63829388D01*
X119787701Y-63904281D01*
X119744682Y-63975314D01*
X119694936Y-64041810D01*
X119638939Y-64103135D01*
X119577225Y-64158703D01*
X119510383Y-64207983D01*
X119439051Y-64250505D01*
X119363910Y-64285864D01*
X119285677Y-64313722D01*
X119205099Y-64333812D01*
X119122945Y-64345943D01*
X119040000Y-64350000D01*
X115990000Y-64350000D01*
X115990000Y-62650000D01*
X119040000Y-62650000D01*
X119051868Y-62650083D01*
G37*
%TD.AperFunction*%
%TD*%
%TO.P,C3,2*%
%TO.N,GND*%
%TA.AperFunction,SMDPad,CuDef*%
G36*
G01*
X102990000Y-69265000D02*
X103490000Y-69265000D01*
G75*
G02*
X103715000Y-69490000I0J-225000D01*
G01*
X103715000Y-69940000D01*
G75*
G02*
X103490000Y-70165000I-225000J0D01*
G01*
X102990000Y-70165000D01*
G75*
G02*
X102765000Y-69940000I0J225000D01*
G01*
X102765000Y-69490000D01*
G75*
G02*
X102990000Y-69265000I225000J0D01*
G01*
G37*
%TD.AperFunction*%
%TO.P,C3,1*%
%TO.N,5V*%
%TA.AperFunction,SMDPad,CuDef*%
G36*
G01*
X102990000Y-67715000D02*
X103490000Y-67715000D01*
G75*
G02*
X103715000Y-67940000I0J-225000D01*
G01*
X103715000Y-68390000D01*
G75*
G02*
X103490000Y-68615000I-225000J0D01*
G01*
X102990000Y-68615000D01*
G75*
G02*
X102765000Y-68390000I0J225000D01*
G01*
X102765000Y-67940000D01*
G75*
G02*
X102990000Y-67715000I225000J0D01*
G01*
G37*
%TD.AperFunction*%
%TD*%
%TO.P,C2,2*%
%TO.N,GND*%
%TA.AperFunction,SMDPad,CuDef*%
G36*
G01*
X117040000Y-67840001D02*
X117040000Y-65639999D01*
G75*
G02*
X117289999Y-65390000I249999J0D01*
G01*
X117940001Y-65390000D01*
G75*
G02*
X118190000Y-65639999I0J-249999D01*
G01*
X118190000Y-67840001D01*
G75*
G02*
X117940001Y-68090000I-249999J0D01*
G01*
X117289999Y-68090000D01*
G75*
G02*
X117040000Y-67840001I0J249999D01*
G01*
G37*
%TD.AperFunction*%
%TO.P,C2,1*%
%TO.N,V_BRUT_P*%
%TA.AperFunction,SMDPad,CuDef*%
G36*
G01*
X114090000Y-67840001D02*
X114090000Y-65639999D01*
G75*
G02*
X114339999Y-65390000I249999J0D01*
G01*
X114990001Y-65390000D01*
G75*
G02*
X115240000Y-65639999I0J-249999D01*
G01*
X115240000Y-67840001D01*
G75*
G02*
X114990001Y-68090000I-249999J0D01*
G01*
X114339999Y-68090000D01*
G75*
G02*
X114090000Y-67840001I0J249999D01*
G01*
G37*
%TD.AperFunction*%
%TD*%
%TO.P,C1,2*%
%TO.N,Net-(C1-Pad2)*%
%TA.AperFunction,SMDPad,CuDef*%
G36*
G01*
X111390000Y-71915000D02*
X110890000Y-71915000D01*
G75*
G02*
X110665000Y-71690000I0J225000D01*
G01*
X110665000Y-71240000D01*
G75*
G02*
X110890000Y-71015000I225000J0D01*
G01*
X111390000Y-71015000D01*
G75*
G02*
X111615000Y-71240000I0J-225000D01*
G01*
X111615000Y-71690000D01*
G75*
G02*
X111390000Y-71915000I-225000J0D01*
G01*
G37*
%TD.AperFunction*%
%TO.P,C1,1*%
%TO.N,Net-(C1-Pad1)*%
%TA.AperFunction,SMDPad,CuDef*%
G36*
G01*
X111390000Y-73465000D02*
X110890000Y-73465000D01*
G75*
G02*
X110665000Y-73240000I0J225000D01*
G01*
X110665000Y-72790000D01*
G75*
G02*
X110890000Y-72565000I225000J0D01*
G01*
X111390000Y-72565000D01*
G75*
G02*
X111615000Y-72790000I0J-225000D01*
G01*
X111615000Y-73240000D01*
G75*
G02*
X111390000Y-73465000I-225000J0D01*
G01*
G37*
%TD.AperFunction*%
%TD*%
%TO.P,C4,1*%
%TO.N,5V*%
%TA.AperFunction,SMDPad,CuDef*%
G36*
G01*
X104639999Y-67690000D02*
X106840001Y-67690000D01*
G75*
G02*
X107090000Y-67939999I0J-249999D01*
G01*
X107090000Y-68590001D01*
G75*
G02*
X106840001Y-68840000I-249999J0D01*
G01*
X104639999Y-68840000D01*
G75*
G02*
X104390000Y-68590001I0J249999D01*
G01*
X104390000Y-67939999D01*
G75*
G02*
X104639999Y-67690000I249999J0D01*
G01*
G37*
%TD.AperFunction*%
%TO.P,C4,2*%
%TO.N,GND*%
%TA.AperFunction,SMDPad,CuDef*%
G36*
G01*
X104639999Y-70640000D02*
X106840001Y-70640000D01*
G75*
G02*
X107090000Y-70889999I0J-249999D01*
G01*
X107090000Y-71540001D01*
G75*
G02*
X106840001Y-71790000I-249999J0D01*
G01*
X104639999Y-71790000D01*
G75*
G02*
X104390000Y-71540001I0J249999D01*
G01*
X104390000Y-70889999D01*
G75*
G02*
X104639999Y-70640000I249999J0D01*
G01*
G37*
%TD.AperFunction*%
%TD*%
D13*
%TO.P,D2,1*%
%TO.N,V_BRUT_P*%
X113790000Y-63500000D03*
%TO.P,D2,2*%
%TO.N,V_BRUT*%
X110990000Y-63500000D03*
%TD*%
%TO.P,D1,1*%
%TO.N,Net-(D1-Pad1)*%
%TA.AperFunction,SMDPad,CuDef*%
G36*
G01*
X116115000Y-75396250D02*
X116115000Y-74883750D01*
G75*
G02*
X116333750Y-74665000I218750J0D01*
G01*
X116771250Y-74665000D01*
G75*
G02*
X116990000Y-74883750I0J-218750D01*
G01*
X116990000Y-75396250D01*
G75*
G02*
X116771250Y-75615000I-218750J0D01*
G01*
X116333750Y-75615000D01*
G75*
G02*
X116115000Y-75396250I0J218750D01*
G01*
G37*
%TD.AperFunction*%
%TO.P,D1,2*%
%TO.N,5V*%
%TA.AperFunction,SMDPad,CuDef*%
G36*
G01*
X117690000Y-75396250D02*
X117690000Y-74883750D01*
G75*
G02*
X117908750Y-74665000I218750J0D01*
G01*
X118346250Y-74665000D01*
G75*
G02*
X118565000Y-74883750I0J-218750D01*
G01*
X118565000Y-75396250D01*
G75*
G02*
X118346250Y-75615000I-218750J0D01*
G01*
X117908750Y-75615000D01*
G75*
G02*
X117690000Y-75396250I0J218750D01*
G01*
G37*
%TD.AperFunction*%
%TD*%
D14*
%TO.P,L1,1*%
%TO.N,5V*%
X108390000Y-67440000D03*
%TO.P,L1,2*%
%TO.N,Net-(C1-Pad2)*%
X112090000Y-67440000D03*
%TD*%
%TO.P,R1,1*%
%TO.N,Net-(D1-Pad1)*%
%TA.AperFunction,SMDPad,CuDef*%
G36*
G01*
X116115000Y-77015000D02*
X116115000Y-76465000D01*
G75*
G02*
X116315000Y-76265000I200000J0D01*
G01*
X116715000Y-76265000D01*
G75*
G02*
X116915000Y-76465000I0J-200000D01*
G01*
X116915000Y-77015000D01*
G75*
G02*
X116715000Y-77215000I-200000J0D01*
G01*
X116315000Y-77215000D01*
G75*
G02*
X116115000Y-77015000I0J200000D01*
G01*
G37*
%TD.AperFunction*%
%TO.P,R1,2*%
%TO.N,GND*%
%TA.AperFunction,SMDPad,CuDef*%
G36*
G01*
X117765000Y-77015000D02*
X117765000Y-76465000D01*
G75*
G02*
X117965000Y-76265000I200000J0D01*
G01*
X118365000Y-76265000D01*
G75*
G02*
X118565000Y-76465000I0J-200000D01*
G01*
X118565000Y-77015000D01*
G75*
G02*
X118365000Y-77215000I-200000J0D01*
G01*
X117965000Y-77215000D01*
G75*
G02*
X117765000Y-77015000I0J200000D01*
G01*
G37*
%TD.AperFunction*%
%TD*%
D13*
%TO.P,D3,1*%
%TO.N,Net-(C1-Pad2)*%
X108890000Y-71240000D03*
%TO.P,D3,2*%
%TO.N,GND*%
X108890000Y-74040000D03*
%TD*%
D15*
%TO.P,U1,1*%
%TO.N,Net-(C1-Pad1)*%
X112940000Y-73340000D03*
%TO.P,U1,2*%
%TO.N,GND*%
X113890000Y-73340000D03*
%TO.P,U1,3*%
%TO.N,Net-(C5-Pad2)*%
X114840000Y-73340000D03*
%TO.P,U1,4*%
%TO.N,EN*%
X114840000Y-71140000D03*
%TO.P,U1,6*%
%TO.N,Net-(C1-Pad2)*%
X112940000Y-71140000D03*
%TO.P,U1,5*%
%TO.N,V_BRUT_P*%
X113890000Y-71140000D03*
%TD*%
D16*
%TO.N,GND*%
X118140000Y-80240000D03*
X119640000Y-80240000D03*
X119640000Y-78740000D03*
X119640000Y-77240000D03*
X119640000Y-72740000D03*
X119640000Y-74240000D03*
X119640000Y-75740000D03*
X116640000Y-80240000D03*
X115140000Y-80240000D03*
X113640000Y-80240000D03*
X112140000Y-80240000D03*
X110640000Y-80240000D03*
X109140000Y-80240000D03*
X107640000Y-80240000D03*
X106140000Y-80240000D03*
X119640000Y-71240000D03*
X119640000Y-71240000D03*
X119640000Y-69740000D03*
X119640000Y-68240000D03*
X118640000Y-67240000D03*
X118640000Y-65740000D03*
X102640000Y-73740000D03*
X104140000Y-73740000D03*
X102640000Y-72240000D03*
X102640000Y-70740000D03*
%TO.N,5V*%
X117465000Y-70640000D03*
%TO.N,EN*%
X115140000Y-69840000D03*
%TD*%
D17*
%TO.N,GND*%
X103240000Y-69715000D02*
X103240000Y-71940000D01*
X104240000Y-72940000D02*
X105740000Y-72940000D01*
X105740000Y-72940000D02*
X105740000Y-71215000D01*
X108890000Y-74040000D02*
X108890000Y-75490000D01*
X108890000Y-75490000D02*
X108840000Y-75440000D01*
X108240000Y-75440000D02*
X105740000Y-72940000D01*
X108840000Y-75440000D02*
X108240000Y-75440000D01*
X104140000Y-78740000D02*
X108340000Y-78740000D01*
X108840000Y-78240000D02*
X108840000Y-75440000D01*
X108340000Y-78740000D02*
X108840000Y-78240000D01*
X118165000Y-76740000D02*
X118940000Y-76740000D01*
X109340000Y-78740000D02*
X108840000Y-78240000D01*
X113890000Y-78590000D02*
X114040000Y-78740000D01*
X113890000Y-73340000D02*
X113890000Y-78590000D01*
X117615000Y-64275000D02*
X116840000Y-63500000D01*
X117615000Y-66740000D02*
X117615000Y-64275000D01*
X119240000Y-68365000D02*
X117615000Y-66740000D01*
X119040000Y-69240000D02*
X119240000Y-69440000D01*
X119240000Y-69440000D02*
X119240000Y-68365000D01*
X118165000Y-69240000D02*
X119040000Y-69240000D01*
X118940000Y-76740000D02*
X119240000Y-76740000D01*
X119240000Y-69440000D02*
X119240000Y-76740000D01*
X104140000Y-78740000D02*
X105640000Y-78740000D01*
X102640000Y-73740000D02*
X104140000Y-73740000D01*
X102640000Y-70740000D02*
X102640000Y-73740000D01*
X103540000Y-72240000D02*
X103590000Y-72290000D01*
X102640000Y-72240000D02*
X103540000Y-72240000D01*
X103590000Y-72290000D02*
X104240000Y-72940000D01*
X103240000Y-71940000D02*
X103590000Y-72290000D01*
X106140000Y-80240000D02*
X119640000Y-80240000D01*
X119640000Y-68240000D02*
X119640000Y-80240000D01*
X111139999Y-79740001D02*
X110640000Y-80240000D01*
X111140000Y-78740000D02*
X111139999Y-79740001D01*
X114040000Y-78740000D02*
X111140000Y-78740000D01*
X111140000Y-78740000D02*
X109340000Y-78740000D01*
X117615000Y-66740000D02*
X118640000Y-66740000D01*
X118640000Y-66740000D02*
X118640000Y-67240000D01*
X118640000Y-65740000D02*
X118640000Y-66740000D01*
%TO.N,5V*%
X104340000Y-66240000D02*
X104140000Y-66040000D01*
X105440000Y-66040000D02*
X104140000Y-66040000D01*
X105740000Y-66340000D02*
X105440000Y-66040000D01*
X108390000Y-67440000D02*
X105740000Y-67440000D01*
X105740000Y-67440000D02*
X105740000Y-66340000D01*
X105740000Y-68265000D02*
X105740000Y-67440000D01*
X103240000Y-66940000D02*
X104140000Y-66040000D01*
X103240000Y-68165000D02*
X103240000Y-66940000D01*
X118215000Y-75052500D02*
X118127500Y-75140000D01*
X118215000Y-71940000D02*
X118215000Y-72565000D01*
X118215000Y-72565000D02*
X118215000Y-75052500D01*
X118215000Y-71390000D02*
X117465000Y-70640000D01*
X118215000Y-71940000D02*
X118215000Y-71390000D01*
%TO.N,V_BRUT*%
X104140000Y-63500000D02*
X110990000Y-63500000D01*
%TO.N,V_BRUT_P*%
X113790000Y-63500000D02*
X114300000Y-63500000D01*
X114665000Y-63865000D02*
X114665000Y-66740000D01*
X114300000Y-63500000D02*
X114665000Y-63865000D01*
X113890000Y-71140000D02*
X113890000Y-69290000D01*
X114665000Y-68515000D02*
X114665000Y-66740000D01*
X113890000Y-69290000D02*
X114665000Y-68515000D01*
%TO.N,EN*%
X114840000Y-70140000D02*
X115140000Y-69840000D01*
X114840000Y-71140000D02*
X114840000Y-70140000D01*
%TO.N,Net-(C1-Pad2)*%
X112940000Y-68290000D02*
X112090000Y-67440000D01*
X108890000Y-71240000D02*
X108890000Y-70290000D01*
X108890000Y-70290000D02*
X109240000Y-69940000D01*
X112940000Y-69940000D02*
X112940000Y-68290000D01*
X112940000Y-71140000D02*
X112940000Y-69940000D01*
X111140000Y-70040000D02*
X111240000Y-69940000D01*
X111140000Y-71465000D02*
X111140000Y-70040000D01*
X111240000Y-69940000D02*
X112940000Y-69940000D01*
X109240000Y-69940000D02*
X111240000Y-69940000D01*
%TO.N,Net-(C1-Pad1)*%
X112940000Y-73340000D02*
X112940000Y-74040000D01*
X112940000Y-74040000D02*
X112740000Y-74240000D01*
X112740000Y-74240000D02*
X111640000Y-74240000D01*
X111140000Y-73740000D02*
X111140000Y-73015000D01*
X111640000Y-74240000D02*
X111140000Y-73740000D01*
%TO.N,Net-(C5-Pad2)*%
X116565000Y-73440000D02*
X116615000Y-73490000D01*
X114840000Y-73340000D02*
X114840000Y-74040000D01*
X114840000Y-74040000D02*
X114940000Y-74140000D01*
X114940000Y-74140000D02*
X115340000Y-74140000D01*
X115990000Y-73490000D02*
X116615000Y-73490000D01*
X115340000Y-74140000D02*
X115990000Y-73490000D01*
X116565000Y-69290000D02*
X116515000Y-69240000D01*
X116565000Y-71940000D02*
X116565000Y-69290000D01*
X116615000Y-71990000D02*
X116565000Y-71940000D01*
X116615000Y-73490000D02*
X116615000Y-71990000D01*
%TO.N,Net-(D1-Pad1)*%
X116552500Y-76702500D02*
X116515000Y-76740000D01*
X116552500Y-75140000D02*
X116552500Y-76702500D01*
%TD*%
D18*
%TO.N,GND*%
X118720001Y-62197571D02*
X118716807Y-62230000D01*
X118729550Y-62359383D01*
X118767290Y-62483793D01*
X118828575Y-62598450D01*
X118911052Y-62698948D01*
X119011550Y-62781425D01*
X119126207Y-62842710D01*
X119250617Y-62880450D01*
X119347581Y-62890000D01*
X119380000Y-62893193D01*
X119412419Y-62890000D01*
X119990000Y-62890000D01*
X119990001Y-64110000D01*
X119412419Y-64110000D01*
X119380000Y-64106807D01*
X119347581Y-64110000D01*
X119250617Y-64119550D01*
X119126207Y-64157290D01*
X119011550Y-64218575D01*
X118911052Y-64301052D01*
X118828575Y-64401550D01*
X118767290Y-64516207D01*
X118729550Y-64640617D01*
X118716807Y-64770000D01*
X118720000Y-64802418D01*
X118720001Y-67277571D01*
X118716807Y-67310000D01*
X118729550Y-67439383D01*
X118767290Y-67563793D01*
X118828575Y-67678450D01*
X118911052Y-67778948D01*
X119011550Y-67861425D01*
X119126207Y-67922710D01*
X119250617Y-67960450D01*
X119347581Y-67970000D01*
X119380000Y-67973193D01*
X119412419Y-67970000D01*
X119990000Y-67970000D01*
X119990001Y-80620000D01*
X102260000Y-80620000D01*
X102260000Y-80042418D01*
X102263193Y-80010000D01*
X102250450Y-79880617D01*
X102212710Y-79756207D01*
X102151425Y-79641550D01*
X102068948Y-79541052D01*
X101968450Y-79458575D01*
X101853793Y-79397290D01*
X101729383Y-79359550D01*
X101632419Y-79350000D01*
X101600000Y-79346807D01*
X101567581Y-79350000D01*
X100990000Y-79350000D01*
X100990000Y-77459431D01*
X101192510Y-77543314D01*
X101401535Y-77584892D01*
X101412217Y-77589470D01*
X101570343Y-77639630D01*
X101692149Y-77665520D01*
X101857006Y-77684012D01*
X101923670Y-77687973D01*
X101935538Y-77688056D01*
X101940000Y-77688072D01*
X104990000Y-77688072D01*
X105114482Y-77675812D01*
X105234180Y-77639502D01*
X105344494Y-77580537D01*
X105441185Y-77501185D01*
X105520537Y-77404494D01*
X105579502Y-77294180D01*
X105615812Y-77174482D01*
X105628072Y-77050000D01*
X105628072Y-75350000D01*
X105615812Y-75225518D01*
X105579502Y-75105820D01*
X105520537Y-74995506D01*
X105441185Y-74898815D01*
X105344494Y-74819463D01*
X105234180Y-74760498D01*
X105114482Y-74724188D01*
X104990000Y-74711928D01*
X102260000Y-74711928D01*
X102260000Y-69867000D01*
X107013000Y-69867000D01*
X107013000Y-72740000D01*
X107015440Y-72764776D01*
X107022667Y-72788601D01*
X107034403Y-72810557D01*
X107050197Y-72829803D01*
X108050197Y-73829803D01*
X108069443Y-73845597D01*
X108091399Y-73857333D01*
X108115224Y-73864560D01*
X108140000Y-73867000D01*
X110300084Y-73867000D01*
X110314645Y-73878950D01*
X110317082Y-73903688D01*
X110364828Y-74061086D01*
X110442364Y-74206145D01*
X110546709Y-74333291D01*
X110578578Y-74359445D01*
X111020558Y-74801426D01*
X111046709Y-74833291D01*
X111173854Y-74937636D01*
X111318913Y-75015172D01*
X111476311Y-75062918D01*
X111598981Y-75075000D01*
X111598982Y-75075000D01*
X111640000Y-75079040D01*
X111681018Y-75075000D01*
X112698982Y-75075000D01*
X112740000Y-75079040D01*
X112781018Y-75075000D01*
X112781019Y-75075000D01*
X112903689Y-75062918D01*
X113061087Y-75015172D01*
X113206146Y-74937636D01*
X113333291Y-74833291D01*
X113359445Y-74801422D01*
X113501425Y-74659442D01*
X113533291Y-74633291D01*
X113637636Y-74506146D01*
X113715172Y-74361087D01*
X113733780Y-74299746D01*
X113795537Y-74224494D01*
X113854502Y-74114180D01*
X113890000Y-73997159D01*
X113925498Y-74114180D01*
X113984463Y-74224494D01*
X114046221Y-74299746D01*
X114064828Y-74361086D01*
X114142364Y-74506145D01*
X114149772Y-74515172D01*
X114246710Y-74633291D01*
X114278574Y-74659441D01*
X114320554Y-74701421D01*
X114346709Y-74733291D01*
X114473854Y-74837636D01*
X114618913Y-74915172D01*
X114776311Y-74962918D01*
X114898981Y-74975000D01*
X114898991Y-74975000D01*
X114939999Y-74979039D01*
X114981007Y-74975000D01*
X115298982Y-74975000D01*
X115340000Y-74979040D01*
X115381018Y-74975000D01*
X115381019Y-74975000D01*
X115476928Y-74965554D01*
X115476928Y-75396250D01*
X115493392Y-75563408D01*
X115542150Y-75724142D01*
X115621329Y-75872275D01*
X115671910Y-75933909D01*
X115618169Y-75999392D01*
X115540722Y-76144284D01*
X115493031Y-76301500D01*
X115476928Y-76465000D01*
X115476928Y-77015000D01*
X115493031Y-77178500D01*
X115540722Y-77335716D01*
X115618169Y-77480608D01*
X115722394Y-77607606D01*
X115849392Y-77711831D01*
X115994284Y-77789278D01*
X116151500Y-77836969D01*
X116315000Y-77853072D01*
X116715000Y-77853072D01*
X116878500Y-77836969D01*
X117035716Y-77789278D01*
X117180608Y-77711831D01*
X117307606Y-77607606D01*
X117411831Y-77480608D01*
X117489278Y-77335716D01*
X117536969Y-77178500D01*
X117553072Y-77015000D01*
X117553072Y-76465000D01*
X117536969Y-76301500D01*
X117489278Y-76144284D01*
X117485249Y-76136746D01*
X117580858Y-76187850D01*
X117741592Y-76236608D01*
X117908750Y-76253072D01*
X118346250Y-76253072D01*
X118513408Y-76236608D01*
X118674142Y-76187850D01*
X118822275Y-76108671D01*
X118952115Y-76002115D01*
X119058671Y-75872275D01*
X119137850Y-75724142D01*
X119186608Y-75563408D01*
X119203072Y-75396250D01*
X119203072Y-74883750D01*
X119186608Y-74716592D01*
X119137850Y-74555858D01*
X119058671Y-74407725D01*
X119050000Y-74397159D01*
X119050000Y-74289705D01*
X119107618Y-74219497D01*
X119187375Y-74070283D01*
X119236488Y-73908377D01*
X119253072Y-73740000D01*
X119253072Y-73240000D01*
X119236488Y-73071623D01*
X119187375Y-72909717D01*
X119107618Y-72760503D01*
X119076940Y-72723122D01*
X119111831Y-72680608D01*
X119189278Y-72535716D01*
X119236969Y-72378500D01*
X119253072Y-72215000D01*
X119253072Y-71665000D01*
X119236969Y-71501500D01*
X119189278Y-71344284D01*
X119111831Y-71199392D01*
X119007606Y-71072394D01*
X118979863Y-71049625D01*
X118912636Y-70923854D01*
X118862627Y-70862918D01*
X118808291Y-70796709D01*
X118776426Y-70770558D01*
X118600000Y-70594132D01*
X118600000Y-70528212D01*
X118556383Y-70308933D01*
X118470824Y-70102376D01*
X118346612Y-69916480D01*
X118188520Y-69758388D01*
X118002624Y-69634176D01*
X117796067Y-69548617D01*
X117576788Y-69505000D01*
X117553072Y-69505000D01*
X117553072Y-68965000D01*
X117536969Y-68801500D01*
X117489278Y-68644284D01*
X117411831Y-68499392D01*
X117307606Y-68372394D01*
X117267000Y-68339069D01*
X117267000Y-64740000D01*
X117264560Y-64715224D01*
X117257333Y-64691399D01*
X117245597Y-64669443D01*
X117229803Y-64650197D01*
X117210557Y-64634403D01*
X117188601Y-64622667D01*
X117164776Y-64615440D01*
X117140000Y-64613000D01*
X116267000Y-64613000D01*
X116267000Y-61620000D01*
X118720001Y-61620000D01*
X118720001Y-62197571D01*
%TA.AperFunction,Conductor*%
D19*
G36*
X118720001Y-62197571D02*
G01*
X118716807Y-62230000D01*
X118729550Y-62359383D01*
X118767290Y-62483793D01*
X118828575Y-62598450D01*
X118911052Y-62698948D01*
X119011550Y-62781425D01*
X119126207Y-62842710D01*
X119250617Y-62880450D01*
X119347581Y-62890000D01*
X119380000Y-62893193D01*
X119412419Y-62890000D01*
X119990000Y-62890000D01*
X119990001Y-64110000D01*
X119412419Y-64110000D01*
X119380000Y-64106807D01*
X119347581Y-64110000D01*
X119250617Y-64119550D01*
X119126207Y-64157290D01*
X119011550Y-64218575D01*
X118911052Y-64301052D01*
X118828575Y-64401550D01*
X118767290Y-64516207D01*
X118729550Y-64640617D01*
X118716807Y-64770000D01*
X118720000Y-64802418D01*
X118720001Y-67277571D01*
X118716807Y-67310000D01*
X118729550Y-67439383D01*
X118767290Y-67563793D01*
X118828575Y-67678450D01*
X118911052Y-67778948D01*
X119011550Y-67861425D01*
X119126207Y-67922710D01*
X119250617Y-67960450D01*
X119347581Y-67970000D01*
X119380000Y-67973193D01*
X119412419Y-67970000D01*
X119990000Y-67970000D01*
X119990001Y-80620000D01*
X102260000Y-80620000D01*
X102260000Y-80042418D01*
X102263193Y-80010000D01*
X102250450Y-79880617D01*
X102212710Y-79756207D01*
X102151425Y-79641550D01*
X102068948Y-79541052D01*
X101968450Y-79458575D01*
X101853793Y-79397290D01*
X101729383Y-79359550D01*
X101632419Y-79350000D01*
X101600000Y-79346807D01*
X101567581Y-79350000D01*
X100990000Y-79350000D01*
X100990000Y-77459431D01*
X101192510Y-77543314D01*
X101401535Y-77584892D01*
X101412217Y-77589470D01*
X101570343Y-77639630D01*
X101692149Y-77665520D01*
X101857006Y-77684012D01*
X101923670Y-77687973D01*
X101935538Y-77688056D01*
X101940000Y-77688072D01*
X104990000Y-77688072D01*
X105114482Y-77675812D01*
X105234180Y-77639502D01*
X105344494Y-77580537D01*
X105441185Y-77501185D01*
X105520537Y-77404494D01*
X105579502Y-77294180D01*
X105615812Y-77174482D01*
X105628072Y-77050000D01*
X105628072Y-75350000D01*
X105615812Y-75225518D01*
X105579502Y-75105820D01*
X105520537Y-74995506D01*
X105441185Y-74898815D01*
X105344494Y-74819463D01*
X105234180Y-74760498D01*
X105114482Y-74724188D01*
X104990000Y-74711928D01*
X102260000Y-74711928D01*
X102260000Y-69867000D01*
X107013000Y-69867000D01*
X107013000Y-72740000D01*
X107015440Y-72764776D01*
X107022667Y-72788601D01*
X107034403Y-72810557D01*
X107050197Y-72829803D01*
X108050197Y-73829803D01*
X108069443Y-73845597D01*
X108091399Y-73857333D01*
X108115224Y-73864560D01*
X108140000Y-73867000D01*
X110300084Y-73867000D01*
X110314645Y-73878950D01*
X110317082Y-73903688D01*
X110364828Y-74061086D01*
X110442364Y-74206145D01*
X110546709Y-74333291D01*
X110578578Y-74359445D01*
X111020558Y-74801426D01*
X111046709Y-74833291D01*
X111173854Y-74937636D01*
X111318913Y-75015172D01*
X111476311Y-75062918D01*
X111598981Y-75075000D01*
X111598982Y-75075000D01*
X111640000Y-75079040D01*
X111681018Y-75075000D01*
X112698982Y-75075000D01*
X112740000Y-75079040D01*
X112781018Y-75075000D01*
X112781019Y-75075000D01*
X112903689Y-75062918D01*
X113061087Y-75015172D01*
X113206146Y-74937636D01*
X113333291Y-74833291D01*
X113359445Y-74801422D01*
X113501425Y-74659442D01*
X113533291Y-74633291D01*
X113637636Y-74506146D01*
X113715172Y-74361087D01*
X113733780Y-74299746D01*
X113795537Y-74224494D01*
X113854502Y-74114180D01*
X113890000Y-73997159D01*
X113925498Y-74114180D01*
X113984463Y-74224494D01*
X114046221Y-74299746D01*
X114064828Y-74361086D01*
X114142364Y-74506145D01*
X114149772Y-74515172D01*
X114246710Y-74633291D01*
X114278574Y-74659441D01*
X114320554Y-74701421D01*
X114346709Y-74733291D01*
X114473854Y-74837636D01*
X114618913Y-74915172D01*
X114776311Y-74962918D01*
X114898981Y-74975000D01*
X114898991Y-74975000D01*
X114939999Y-74979039D01*
X114981007Y-74975000D01*
X115298982Y-74975000D01*
X115340000Y-74979040D01*
X115381018Y-74975000D01*
X115381019Y-74975000D01*
X115476928Y-74965554D01*
X115476928Y-75396250D01*
X115493392Y-75563408D01*
X115542150Y-75724142D01*
X115621329Y-75872275D01*
X115671910Y-75933909D01*
X115618169Y-75999392D01*
X115540722Y-76144284D01*
X115493031Y-76301500D01*
X115476928Y-76465000D01*
X115476928Y-77015000D01*
X115493031Y-77178500D01*
X115540722Y-77335716D01*
X115618169Y-77480608D01*
X115722394Y-77607606D01*
X115849392Y-77711831D01*
X115994284Y-77789278D01*
X116151500Y-77836969D01*
X116315000Y-77853072D01*
X116715000Y-77853072D01*
X116878500Y-77836969D01*
X117035716Y-77789278D01*
X117180608Y-77711831D01*
X117307606Y-77607606D01*
X117411831Y-77480608D01*
X117489278Y-77335716D01*
X117536969Y-77178500D01*
X117553072Y-77015000D01*
X117553072Y-76465000D01*
X117536969Y-76301500D01*
X117489278Y-76144284D01*
X117485249Y-76136746D01*
X117580858Y-76187850D01*
X117741592Y-76236608D01*
X117908750Y-76253072D01*
X118346250Y-76253072D01*
X118513408Y-76236608D01*
X118674142Y-76187850D01*
X118822275Y-76108671D01*
X118952115Y-76002115D01*
X119058671Y-75872275D01*
X119137850Y-75724142D01*
X119186608Y-75563408D01*
X119203072Y-75396250D01*
X119203072Y-74883750D01*
X119186608Y-74716592D01*
X119137850Y-74555858D01*
X119058671Y-74407725D01*
X119050000Y-74397159D01*
X119050000Y-74289705D01*
X119107618Y-74219497D01*
X119187375Y-74070283D01*
X119236488Y-73908377D01*
X119253072Y-73740000D01*
X119253072Y-73240000D01*
X119236488Y-73071623D01*
X119187375Y-72909717D01*
X119107618Y-72760503D01*
X119076940Y-72723122D01*
X119111831Y-72680608D01*
X119189278Y-72535716D01*
X119236969Y-72378500D01*
X119253072Y-72215000D01*
X119253072Y-71665000D01*
X119236969Y-71501500D01*
X119189278Y-71344284D01*
X119111831Y-71199392D01*
X119007606Y-71072394D01*
X118979863Y-71049625D01*
X118912636Y-70923854D01*
X118862627Y-70862918D01*
X118808291Y-70796709D01*
X118776426Y-70770558D01*
X118600000Y-70594132D01*
X118600000Y-70528212D01*
X118556383Y-70308933D01*
X118470824Y-70102376D01*
X118346612Y-69916480D01*
X118188520Y-69758388D01*
X118002624Y-69634176D01*
X117796067Y-69548617D01*
X117576788Y-69505000D01*
X117553072Y-69505000D01*
X117553072Y-68965000D01*
X117536969Y-68801500D01*
X117489278Y-68644284D01*
X117411831Y-68499392D01*
X117307606Y-68372394D01*
X117267000Y-68339069D01*
X117267000Y-64740000D01*
X117264560Y-64715224D01*
X117257333Y-64691399D01*
X117245597Y-64669443D01*
X117229803Y-64650197D01*
X117210557Y-64634403D01*
X117188601Y-64622667D01*
X117164776Y-64615440D01*
X117140000Y-64613000D01*
X116267000Y-64613000D01*
X116267000Y-61620000D01*
X118720001Y-61620000D01*
X118720001Y-62197571D01*
G37*
%TD.AperFunction*%
%TD*%
D18*
%TO.N,V_BRUT*%
X110813000Y-64213000D02*
X104267000Y-64213000D01*
X104267000Y-62467000D01*
X110813000Y-62467000D01*
X110813000Y-64213000D01*
%TA.AperFunction,Conductor*%
D19*
G36*
X110813000Y-64213000D02*
G01*
X104267000Y-64213000D01*
X104267000Y-62467000D01*
X110813000Y-62467000D01*
X110813000Y-64213000D01*
G37*
%TD.AperFunction*%
%TD*%
D18*
%TO.N,V_BRUT_P*%
X115313000Y-68481097D02*
X115048387Y-68705000D01*
X115028212Y-68705000D01*
X114808933Y-68748617D01*
X114602376Y-68834176D01*
X114416480Y-68958388D01*
X114258388Y-69116480D01*
X114134176Y-69302376D01*
X114048617Y-69508933D01*
X114037232Y-69566168D01*
X114027109Y-69581823D01*
X114017928Y-69604965D01*
X114013000Y-69640000D01*
X114013000Y-69687993D01*
X114005000Y-69728212D01*
X114005000Y-69951788D01*
X114013000Y-69992008D01*
X114013000Y-70017755D01*
X114000960Y-70140000D01*
X114005001Y-70181028D01*
X114005001Y-70230480D01*
X113984463Y-70255506D01*
X113925498Y-70365820D01*
X113890000Y-70482841D01*
X113854502Y-70365820D01*
X113795537Y-70255506D01*
X113775000Y-70230482D01*
X113775000Y-69981018D01*
X113779040Y-69940000D01*
X113775000Y-69898981D01*
X113775000Y-68331018D01*
X113779040Y-68290000D01*
X113767000Y-68167757D01*
X113767000Y-62867000D01*
X115313000Y-62867000D01*
X115313000Y-68481097D01*
%TA.AperFunction,Conductor*%
D19*
G36*
X115313000Y-68481097D02*
G01*
X115048387Y-68705000D01*
X115028212Y-68705000D01*
X114808933Y-68748617D01*
X114602376Y-68834176D01*
X114416480Y-68958388D01*
X114258388Y-69116480D01*
X114134176Y-69302376D01*
X114048617Y-69508933D01*
X114037232Y-69566168D01*
X114027109Y-69581823D01*
X114017928Y-69604965D01*
X114013000Y-69640000D01*
X114013000Y-69687993D01*
X114005000Y-69728212D01*
X114005000Y-69951788D01*
X114013000Y-69992008D01*
X114013000Y-70017755D01*
X114000960Y-70140000D01*
X114005001Y-70181028D01*
X114005001Y-70230480D01*
X113984463Y-70255506D01*
X113925498Y-70365820D01*
X113890000Y-70482841D01*
X113854502Y-70365820D01*
X113795537Y-70255506D01*
X113775000Y-70230482D01*
X113775000Y-69981018D01*
X113779040Y-69940000D01*
X113775000Y-69898981D01*
X113775000Y-68331018D01*
X113779040Y-68290000D01*
X113767000Y-68167757D01*
X113767000Y-62867000D01*
X115313000Y-62867000D01*
X115313000Y-68481097D01*
G37*
%TD.AperFunction*%
%TD*%
D18*
%TO.N,5V*%
X108013000Y-68113000D02*
X103267000Y-68113000D01*
X103267000Y-65867000D01*
X108013000Y-65867000D01*
X108013000Y-68113000D01*
%TA.AperFunction,Conductor*%
D19*
G36*
X108013000Y-68113000D02*
G01*
X103267000Y-68113000D01*
X103267000Y-65867000D01*
X108013000Y-65867000D01*
X108013000Y-68113000D01*
G37*
%TD.AperFunction*%
%TD*%
D18*
%TO.N,Net-(C1-Pad2)*%
X112913000Y-71113000D02*
X108767000Y-71113000D01*
X108767000Y-69367000D01*
X110640000Y-69367000D01*
X110664776Y-69364560D01*
X110688601Y-69357333D01*
X110710557Y-69345597D01*
X110729803Y-69329803D01*
X111729803Y-68329803D01*
X111745597Y-68310557D01*
X111757333Y-68288601D01*
X111764560Y-68264776D01*
X111767000Y-68240000D01*
X111767000Y-66367000D01*
X112913000Y-66367000D01*
X112913000Y-71113000D01*
%TA.AperFunction,Conductor*%
D19*
G36*
X112913000Y-71113000D02*
G01*
X108767000Y-71113000D01*
X108767000Y-69367000D01*
X110640000Y-69367000D01*
X110664776Y-69364560D01*
X110688601Y-69357333D01*
X110710557Y-69345597D01*
X110729803Y-69329803D01*
X111729803Y-68329803D01*
X111745597Y-68310557D01*
X111757333Y-68288601D01*
X111764560Y-68264776D01*
X111767000Y-68240000D01*
X111767000Y-66367000D01*
X112913000Y-66367000D01*
X112913000Y-71113000D01*
G37*
%TD.AperFunction*%
%TD*%
M02*
