%TF.GenerationSoftware,KiCad,Pcbnew,(5.1.9)-1*%
%TF.CreationDate,2021-06-07T16:13:34+02:00*%
%TF.ProjectId,16_STEP_DOWN,31365f53-5445-4505-9f44-4f574e2e6b69,rev?*%
%TF.SameCoordinates,Original*%
%TF.FileFunction,Legend,Top*%
%TF.FilePolarity,Positive*%
%FSLAX46Y46*%
G04 Gerber Fmt 4.6, Leading zero omitted, Abs format (unit mm)*
G04 Created by KiCad (PCBNEW (5.1.9)-1) date 2021-06-07 16:13:34*
%MOMM*%
%LPD*%
G01*
G04 APERTURE LIST*
%ADD10C,0.150000*%
%TA.AperFunction,Profile*%
%ADD11C,0.050000*%
%TD*%
%ADD12C,0.250000*%
%ADD13C,0.120000*%
G04 APERTURE END LIST*
D10*
X105901904Y-79668571D02*
X106235238Y-79668571D01*
X106378095Y-80192380D02*
X105901904Y-80192380D01*
X105901904Y-79192380D01*
X106378095Y-79192380D01*
X106806666Y-80192380D02*
X106806666Y-79192380D01*
X107378095Y-80192380D01*
X107378095Y-79192380D01*
X116678095Y-65240000D02*
X116582857Y-65192380D01*
X116440000Y-65192380D01*
X116297142Y-65240000D01*
X116201904Y-65335238D01*
X116154285Y-65430476D01*
X116106666Y-65620952D01*
X116106666Y-65763809D01*
X116154285Y-65954285D01*
X116201904Y-66049523D01*
X116297142Y-66144761D01*
X116440000Y-66192380D01*
X116535238Y-66192380D01*
X116678095Y-66144761D01*
X116725714Y-66097142D01*
X116725714Y-65763809D01*
X116535238Y-65763809D01*
X117154285Y-66192380D02*
X117154285Y-65192380D01*
X117725714Y-66192380D01*
X117725714Y-65192380D01*
X118201904Y-66192380D02*
X118201904Y-65192380D01*
X118440000Y-65192380D01*
X118582857Y-65240000D01*
X118678095Y-65335238D01*
X118725714Y-65430476D01*
X118773333Y-65620952D01*
X118773333Y-65763809D01*
X118725714Y-65954285D01*
X118678095Y-66049523D01*
X118582857Y-66144761D01*
X118440000Y-66192380D01*
X118201904Y-66192380D01*
X106144761Y-62892380D02*
X106478095Y-63892380D01*
X106811428Y-62892380D01*
X107144761Y-63892380D02*
X107144761Y-62892380D01*
X107620952Y-63892380D02*
X107620952Y-62892380D01*
X108192380Y-63892380D01*
X108192380Y-62892380D01*
D11*
X119380000Y-67310000D02*
X120650000Y-67310000D01*
X119380000Y-64770000D02*
X119380000Y-67310000D01*
X120650000Y-64770000D02*
X119380000Y-64770000D01*
X120650000Y-62230000D02*
X120650000Y-64770000D01*
X119380000Y-62230000D02*
X120650000Y-62230000D01*
X119380000Y-60960000D02*
X119380000Y-62230000D01*
D10*
X106649523Y-74692380D02*
X106173333Y-74692380D01*
X106125714Y-75168571D01*
X106173333Y-75120952D01*
X106268571Y-75073333D01*
X106506666Y-75073333D01*
X106601904Y-75120952D01*
X106649523Y-75168571D01*
X106697142Y-75263809D01*
X106697142Y-75501904D01*
X106649523Y-75597142D01*
X106601904Y-75644761D01*
X106506666Y-75692380D01*
X106268571Y-75692380D01*
X106173333Y-75644761D01*
X106125714Y-75597142D01*
X106982857Y-74692380D02*
X107316190Y-75692380D01*
X107649523Y-74692380D01*
D11*
X113665000Y-60960000D02*
X119380000Y-60960000D01*
X114935000Y-81280000D02*
X120650000Y-81280000D01*
X101600000Y-62230000D02*
X101600000Y-60960000D01*
X100330000Y-62230000D02*
X101600000Y-62230000D01*
X100330000Y-64770000D02*
X100330000Y-62230000D01*
X101600000Y-67310000D02*
X100330000Y-67310000D01*
X101600000Y-74930000D02*
X101600000Y-67310000D01*
X100330000Y-74930000D02*
X101600000Y-74930000D01*
D10*
X106778095Y-65140000D02*
X106682857Y-65092380D01*
X106540000Y-65092380D01*
X106397142Y-65140000D01*
X106301904Y-65235238D01*
X106254285Y-65330476D01*
X106206666Y-65520952D01*
X106206666Y-65663809D01*
X106254285Y-65854285D01*
X106301904Y-65949523D01*
X106397142Y-66044761D01*
X106540000Y-66092380D01*
X106635238Y-66092380D01*
X106778095Y-66044761D01*
X106825714Y-65997142D01*
X106825714Y-65663809D01*
X106635238Y-65663809D01*
X107254285Y-66092380D02*
X107254285Y-65092380D01*
X107825714Y-66092380D01*
X107825714Y-65092380D01*
X108301904Y-66092380D02*
X108301904Y-65092380D01*
X108540000Y-65092380D01*
X108682857Y-65140000D01*
X108778095Y-65235238D01*
X108825714Y-65330476D01*
X108873333Y-65520952D01*
X108873333Y-65663809D01*
X108825714Y-65854285D01*
X108778095Y-65949523D01*
X108682857Y-66044761D01*
X108540000Y-66092380D01*
X108301904Y-66092380D01*
D11*
X120650000Y-67310000D02*
X120650000Y-81280000D01*
X101600000Y-60960000D02*
X113665000Y-60960000D01*
X101600000Y-80010000D02*
X101600000Y-81280000D01*
X100330000Y-80010000D02*
X101600000Y-80010000D01*
X100330000Y-64770000D02*
X100330000Y-67310000D01*
X114935000Y-81280000D02*
X101600000Y-81280000D01*
X100330000Y-80010000D02*
X100330000Y-74930000D01*
D12*
X119187619Y-80506666D02*
X119140000Y-80459047D01*
X119092380Y-80363809D01*
X119092380Y-80125714D01*
X119140000Y-80030476D01*
X119187619Y-79982857D01*
X119282857Y-79935238D01*
X119378095Y-79935238D01*
X119520952Y-79982857D01*
X120092380Y-80554285D01*
X120092380Y-79935238D01*
X119092380Y-79316190D02*
X119092380Y-79220952D01*
X119140000Y-79125714D01*
X119187619Y-79078095D01*
X119282857Y-79030476D01*
X119473333Y-78982857D01*
X119711428Y-78982857D01*
X119901904Y-79030476D01*
X119997142Y-79078095D01*
X120044761Y-79125714D01*
X120092380Y-79220952D01*
X120092380Y-79316190D01*
X120044761Y-79411428D01*
X119997142Y-79459047D01*
X119901904Y-79506666D01*
X119711428Y-79554285D01*
X119473333Y-79554285D01*
X119282857Y-79506666D01*
X119187619Y-79459047D01*
X119140000Y-79411428D01*
X119092380Y-79316190D01*
X119187619Y-78601904D02*
X119140000Y-78554285D01*
X119092380Y-78459047D01*
X119092380Y-78220952D01*
X119140000Y-78125714D01*
X119187619Y-78078095D01*
X119282857Y-78030476D01*
X119378095Y-78030476D01*
X119520952Y-78078095D01*
X120092380Y-78649523D01*
X120092380Y-78030476D01*
X120092380Y-77078095D02*
X120092380Y-77649523D01*
X120092380Y-77363809D02*
X119092380Y-77363809D01*
X119235238Y-77459047D01*
X119330476Y-77554285D01*
X119378095Y-77649523D01*
X119044761Y-75935238D02*
X120330476Y-76792380D01*
X119092380Y-75411428D02*
X119092380Y-75316190D01*
X119140000Y-75220952D01*
X119187619Y-75173333D01*
X119282857Y-75125714D01*
X119473333Y-75078095D01*
X119711428Y-75078095D01*
X119901904Y-75125714D01*
X119997142Y-75173333D01*
X120044761Y-75220952D01*
X120092380Y-75316190D01*
X120092380Y-75411428D01*
X120044761Y-75506666D01*
X119997142Y-75554285D01*
X119901904Y-75601904D01*
X119711428Y-75649523D01*
X119473333Y-75649523D01*
X119282857Y-75601904D01*
X119187619Y-75554285D01*
X119140000Y-75506666D01*
X119092380Y-75411428D01*
X119092380Y-74173333D02*
X119092380Y-74649523D01*
X119568571Y-74697142D01*
X119520952Y-74649523D01*
X119473333Y-74554285D01*
X119473333Y-74316190D01*
X119520952Y-74220952D01*
X119568571Y-74173333D01*
X119663809Y-74125714D01*
X119901904Y-74125714D01*
X119997142Y-74173333D01*
X120044761Y-74220952D01*
X120092380Y-74316190D01*
X120092380Y-74554285D01*
X120044761Y-74649523D01*
X119997142Y-74697142D01*
X119044761Y-72982857D02*
X120330476Y-73840000D01*
X119187619Y-72697142D02*
X119140000Y-72649523D01*
X119092380Y-72554285D01*
X119092380Y-72316190D01*
X119140000Y-72220952D01*
X119187619Y-72173333D01*
X119282857Y-72125714D01*
X119378095Y-72125714D01*
X119520952Y-72173333D01*
X120092380Y-72744761D01*
X120092380Y-72125714D01*
X119520952Y-71554285D02*
X119473333Y-71649523D01*
X119425714Y-71697142D01*
X119330476Y-71744761D01*
X119282857Y-71744761D01*
X119187619Y-71697142D01*
X119140000Y-71649523D01*
X119092380Y-71554285D01*
X119092380Y-71363809D01*
X119140000Y-71268571D01*
X119187619Y-71220952D01*
X119282857Y-71173333D01*
X119330476Y-71173333D01*
X119425714Y-71220952D01*
X119473333Y-71268571D01*
X119520952Y-71363809D01*
X119520952Y-71554285D01*
X119568571Y-71649523D01*
X119616190Y-71697142D01*
X119711428Y-71744761D01*
X119901904Y-71744761D01*
X119997142Y-71697142D01*
X120044761Y-71649523D01*
X120092380Y-71554285D01*
X120092380Y-71363809D01*
X120044761Y-71268571D01*
X119997142Y-71220952D01*
X119901904Y-71173333D01*
X119711428Y-71173333D01*
X119616190Y-71220952D01*
X119568571Y-71268571D01*
X119520952Y-71363809D01*
D13*
%TO.C,C5*%
X117530580Y-72980000D02*
X117249420Y-72980000D01*
X117530580Y-74000000D02*
X117249420Y-74000000D01*
%TO.C,R3*%
X117102742Y-68717500D02*
X117577258Y-68717500D01*
X117102742Y-69762500D02*
X117577258Y-69762500D01*
%TO.C,R2*%
X117627258Y-71417500D02*
X117152742Y-71417500D01*
X117627258Y-72462500D02*
X117152742Y-72462500D01*
%TO.C,J5*%
X105470000Y-77530000D02*
X104140000Y-77530000D01*
X105470000Y-76200000D02*
X105470000Y-77530000D01*
X105470000Y-74930000D02*
X102810000Y-74930000D01*
X102810000Y-74930000D02*
X102810000Y-74870000D01*
X105470000Y-74930000D02*
X105470000Y-74870000D01*
X105470000Y-74870000D02*
X102810000Y-74870000D01*
%TO.C,J1*%
X105470000Y-80070000D02*
X104140000Y-80070000D01*
X105470000Y-78740000D02*
X105470000Y-80070000D01*
X105470000Y-77470000D02*
X102810000Y-77470000D01*
X102810000Y-77470000D02*
X102810000Y-77410000D01*
X105470000Y-77470000D02*
X105470000Y-77410000D01*
X105470000Y-77410000D02*
X102810000Y-77410000D01*
%TO.C,J3*%
X105470000Y-64830000D02*
X104140000Y-64830000D01*
X105470000Y-63500000D02*
X105470000Y-64830000D01*
X105470000Y-62230000D02*
X102810000Y-62230000D01*
X102810000Y-62230000D02*
X102810000Y-62170000D01*
X105470000Y-62230000D02*
X105470000Y-62170000D01*
X105470000Y-62170000D02*
X102810000Y-62170000D01*
%TO.C,J4*%
X105470000Y-67370000D02*
X104140000Y-67370000D01*
X105470000Y-66040000D02*
X105470000Y-67370000D01*
X105470000Y-64770000D02*
X102810000Y-64770000D01*
X102810000Y-64770000D02*
X102810000Y-64710000D01*
X105470000Y-64770000D02*
X105470000Y-64710000D01*
X105470000Y-64710000D02*
X102810000Y-64710000D01*
%TO.C,J2*%
X115510000Y-62170000D02*
X116840000Y-62170000D01*
X115510000Y-63500000D02*
X115510000Y-62170000D01*
X115510000Y-64770000D02*
X118170000Y-64770000D01*
X118170000Y-64770000D02*
X118170000Y-64830000D01*
X115510000Y-64770000D02*
X115510000Y-64830000D01*
X115510000Y-64830000D02*
X118170000Y-64830000D01*
%TO.C,C3*%
X102730000Y-68799420D02*
X102730000Y-69080580D01*
X103750000Y-68799420D02*
X103750000Y-69080580D01*
%TO.C,C2*%
X115428748Y-68100000D02*
X116851252Y-68100000D01*
X115428748Y-65380000D02*
X116851252Y-65380000D01*
%TO.C,C1*%
X111650000Y-72380580D02*
X111650000Y-72099420D01*
X110630000Y-72380580D02*
X110630000Y-72099420D01*
%TO.C,C4*%
X107100000Y-69028748D02*
X107100000Y-70451252D01*
X104380000Y-69028748D02*
X104380000Y-70451252D01*
%TO.C,D2*%
X114590000Y-64500000D02*
X114590000Y-62500000D01*
X114590000Y-62500000D02*
X110740000Y-62500000D01*
X114590000Y-64500000D02*
X110740000Y-64500000D01*
%TO.C,D1*%
X118140000Y-74405000D02*
X115855000Y-74405000D01*
X115855000Y-74405000D02*
X115855000Y-75875000D01*
X115855000Y-75875000D02*
X118140000Y-75875000D01*
%TO.C,L1*%
X107740000Y-65940000D02*
X107740000Y-65190000D01*
X107740000Y-65190000D02*
X112740000Y-65190000D01*
X112740000Y-65190000D02*
X112740000Y-65940000D01*
X107740000Y-68940000D02*
X107740000Y-69690000D01*
X107740000Y-69690000D02*
X112740000Y-69690000D01*
X112740000Y-69690000D02*
X112740000Y-68940000D01*
%TO.C,R1*%
X117102742Y-76217500D02*
X117577258Y-76217500D01*
X117102742Y-77262500D02*
X117577258Y-77262500D01*
%TO.C,D3*%
X109890000Y-70440000D02*
X109890000Y-74290000D01*
X107890000Y-70440000D02*
X107890000Y-74290000D01*
X109890000Y-70440000D02*
X107890000Y-70440000D01*
%TO.C,U1*%
X112280000Y-71340000D02*
X112280000Y-73790000D01*
X115500000Y-73140000D02*
X115500000Y-71340000D01*
%TD*%
%TO.C,C5*%
D10*
X117223333Y-75277142D02*
X117175714Y-75324761D01*
X117032857Y-75372380D01*
X116937619Y-75372380D01*
X116794761Y-75324761D01*
X116699523Y-75229523D01*
X116651904Y-75134285D01*
X116604285Y-74943809D01*
X116604285Y-74800952D01*
X116651904Y-74610476D01*
X116699523Y-74515238D01*
X116794761Y-74420000D01*
X116937619Y-74372380D01*
X117032857Y-74372380D01*
X117175714Y-74420000D01*
X117223333Y-74467619D01*
X118128095Y-74372380D02*
X117651904Y-74372380D01*
X117604285Y-74848571D01*
X117651904Y-74800952D01*
X117747142Y-74753333D01*
X117985238Y-74753333D01*
X118080476Y-74800952D01*
X118128095Y-74848571D01*
X118175714Y-74943809D01*
X118175714Y-75181904D01*
X118128095Y-75277142D01*
X118080476Y-75324761D01*
X117985238Y-75372380D01*
X117747142Y-75372380D01*
X117651904Y-75324761D01*
X117604285Y-75277142D01*
%TO.C,R3*%
X117173333Y-68262380D02*
X116840000Y-67786190D01*
X116601904Y-68262380D02*
X116601904Y-67262380D01*
X116982857Y-67262380D01*
X117078095Y-67310000D01*
X117125714Y-67357619D01*
X117173333Y-67452857D01*
X117173333Y-67595714D01*
X117125714Y-67690952D01*
X117078095Y-67738571D01*
X116982857Y-67786190D01*
X116601904Y-67786190D01*
X117506666Y-67262380D02*
X118125714Y-67262380D01*
X117792380Y-67643333D01*
X117935238Y-67643333D01*
X118030476Y-67690952D01*
X118078095Y-67738571D01*
X118125714Y-67833809D01*
X118125714Y-68071904D01*
X118078095Y-68167142D01*
X118030476Y-68214761D01*
X117935238Y-68262380D01*
X117649523Y-68262380D01*
X117554285Y-68214761D01*
X117506666Y-68167142D01*
%TO.C,R2*%
X117223333Y-73822380D02*
X116890000Y-73346190D01*
X116651904Y-73822380D02*
X116651904Y-72822380D01*
X117032857Y-72822380D01*
X117128095Y-72870000D01*
X117175714Y-72917619D01*
X117223333Y-73012857D01*
X117223333Y-73155714D01*
X117175714Y-73250952D01*
X117128095Y-73298571D01*
X117032857Y-73346190D01*
X116651904Y-73346190D01*
X117604285Y-72917619D02*
X117651904Y-72870000D01*
X117747142Y-72822380D01*
X117985238Y-72822380D01*
X118080476Y-72870000D01*
X118128095Y-72917619D01*
X118175714Y-73012857D01*
X118175714Y-73108095D01*
X118128095Y-73250952D01*
X117556666Y-73822380D01*
X118175714Y-73822380D01*
%TO.C,D3*%
X111247380Y-73251095D02*
X110247380Y-73251095D01*
X110247380Y-73013000D01*
X110295000Y-72870142D01*
X110390238Y-72774904D01*
X110485476Y-72727285D01*
X110675952Y-72679666D01*
X110818809Y-72679666D01*
X111009285Y-72727285D01*
X111104523Y-72774904D01*
X111199761Y-72870142D01*
X111247380Y-73013000D01*
X111247380Y-73251095D01*
X110247380Y-72346333D02*
X110247380Y-71727285D01*
X110628333Y-72060619D01*
X110628333Y-71917761D01*
X110675952Y-71822523D01*
X110723571Y-71774904D01*
X110818809Y-71727285D01*
X111056904Y-71727285D01*
X111152142Y-71774904D01*
X111199761Y-71822523D01*
X111247380Y-71917761D01*
X111247380Y-72203476D01*
X111199761Y-72298714D01*
X111152142Y-72346333D01*
%TO.C,U1*%
X110442380Y-73001904D02*
X111251904Y-73001904D01*
X111347142Y-72954285D01*
X111394761Y-72906666D01*
X111442380Y-72811428D01*
X111442380Y-72620952D01*
X111394761Y-72525714D01*
X111347142Y-72478095D01*
X111251904Y-72430476D01*
X110442380Y-72430476D01*
X111442380Y-71430476D02*
X111442380Y-72001904D01*
X111442380Y-71716190D02*
X110442380Y-71716190D01*
X110585238Y-71811428D01*
X110680476Y-71906666D01*
X110728095Y-72001904D01*
%TD*%
M02*
